<svg version="1" xmlns="http://www.w3.org/2000/svg" width="1833.333" height="1833.333" viewBox="0 0 1375.000000 1375.000000"><path d="M533 303c1.2 2.2 2.5 2.6 3.6.9.7-1.2-1.2-2.9-3.4-2.9-1 0-1 .5-.2 2zM556.3 303.2c-3.2 1.5-2.9 3 .4 2.6 1.7-.2 2.9-1 3.1-2.1.4-1.9-.3-2-3.5-.5zM442.5 304c-65.5 5.9-120.3 27.2-159.3 62-40.8 36.4-80.3 83.1-115.8 137-24.3 37-56.3 92.5-59.8 103.7l-.7 2.3h33.9l5.6-10.4c3.1-5.7 5.6-11 5.6-11.7 0-.7 1.1-2.4 2.4-3.8 3-3.4 8.7-13.6 8-14.4-.4-.3.5-1.6 1.9-2.9 2.7-2.5 14.7-22.4 14.7-24.4 0-.7.6-1.7 1.3-2.1 1.4-.8 15.3-21.2 16.4-23.9.3-.9 1.7-2.7 3.1-4.1 1.9-1.9 2.3-3.1 1.8-5.4-.4-2.3-.2-2.9 1.2-2.9 2 0 6.2-4.8 21-24.1 6.2-8 12.1-15.4 13.2-16.4 1.9-1.7 2-1.7 2-.1 0 2.1 2.4 1.6 2.8-.6.2-.9-.4-1.8-1.3-2-1.2-.2.4-2.7 6-9.3 4.2-5 9.3-11.3 11.5-14.1 12.2-16.2 29.7-25.7 42.7-23.3 9.6 1.8 19.2 10 21.2 18.1 3.1 13-.7 23.5-14.2 39.1-3.5 4-7.4 8.8-8.7 10.7-1.4 1.9-3.9 4.8-5.7 6.3-1.8 1.6-3.3 3.4-3.3 4.1 0 .7-1.8 3-4.1 5.1-4.1 4-21.8 26.6-29.6 37.9-12.9 18.4-30.2 45.1-33.6 51.6-2.1 4.1-4.7 8.4-5.7 9.5-1 1.1-3.2 4.3-4.8 7.1l-3 5.2 3 .6c1.7.3 5.4.6 8.2.7 7.9.1 2.6 1.7-5.9 1.8-6.7.1-7.1.2-8.7 3.2-2.2 3.8-2.3 4.9-.2 4.9 1 0 1.4.6 1 1.7-.3 1-.8 3.1-1.2 4.6-.5 2-1 2.5-1.7 1.8-3-3-4.7-1.1-12.9 15.1-6.9 13.9-8.1 17.1-8.2 21.5-.1 3.1-.6 5.3-1.2 5.3-1.8 0-4.1 3.2-5.9 8-7.2 19.7-7.8 22.3-6.1 23.5 2.4 1.8 2 4.5-.7 4.5-1.9 0-2.6.8-3.5 3.7-2.2 7.7-6.2 26.5-6.8 32.2-.6 5.4-.5 5.9 1.5 6.6 2.4.7 1.9 2.5-.8 2.5-1.2 0-2.1 1-2.5 2.7-1 4.7-2 36.3-1.1 36.3.5 0 1.7-.7 2.7-1.7 1.7-1.5 1.8-1.5 1.8.2 0 1.1-1.1 3-2.4 4.4l-2.5 2.6 2 14c1.9 13.2 3.6 18.5 6 18.5.6 0 .7 1.8.3 4.7-.4 3.7 0 6.2 1.9 11.3 5.3 14.2 8.9 22 10.2 22 .7 0 1.1.9.8 2.3-.2 1.2 1 4.4 2.6 7.2 1.7 2.7 4.1 7.2 5.4 10 1.4 2.7 4.4 7.8 6.8 11.2 2.4 3.4 7.2 10.1 10.6 15 5.3 7.5 8.1 10.8 14.1 16.8.6.5 4.1 4.3 7.9 8.4 11.1 11.9 34.9 29.9 38 28.7.7-.3 2.9 1.1 4.8 3.1 3.5 3.6 3.5 3.6 7.6 2.3 3.6-1.2 4.3-1.2 5.3.1.6.9 1.8 1.8 2.6 2.1 1.2.4 1 .7-.8 1.7s-2.2.9-2.2-.4c0-.8-.9-1.5-2-1.5s-2 .4-2 .8c0 1.3 15.2 8.2 17.9 8.2 1.2 0 4.1 1.1 6.4 2.4 2.3 1.3 11.2 4.2 19.7 6.6 8.5 2.3 19.3 5.4 23.8 7 7.6 2.5 8.8 3.3 13.4 8.6 9.5 11.2 11.3 19.8 6.4 30.8-1.4 3.2-2.6 6-2.6 6.2 0 .2 6.3.4 13.9.4h14l.3-2.8.3-2.7 1.8 3.2 1.7 3.2h41.2c26.1.1 41.6.5 42.2 1.1 1 1-.5 1.1-38.2 1.2-14.7.1-17.4.3-18.2 1.7-.9 1.4-1.1 1.4-2-.2-1-1.5-2.8-1.7-15.1-1.7-8.1 0-14.9-.5-16-1.1-1.5-.7-2.4-.7-3.4.1-.9.7-6.4 1.3-14.2 1.5-11 .3-13.8.7-19.7 3-12.5 4.7-17 5.6-21.8 4-10.7-3.4-34.7-8.4-39.3-8.2l-5 .2.3 3.9c.4 4.5-1.3 4.2-2.3-.4-.6-2.6-1.1-3-4.1-3-2.9 0-3.4.4-3.4 2.2v2.3l-1.9-2.4c-1.8-2.4-2.3-2.4-19.2-2.8-9.6-.3-19-.1-20.9.2-3.3.7-3.4.7-1.5 2.2 3.8 2.9 30 15.1 41.4 19.3l11.4 4.1 31.9.1c30.2.1 31.9 0 33.3-1.8 1.5-1.9 1.5-1.9 1.3.1-.2 1.6.4 2.1 3 2.3 1.8.2 3.6 1 3.8 1.7.5 1.2.9 1.2 2.9-.1 1.9-1.3 9.1-1.5 49.1-1.4 25.8.1 48.7.2 50.9.3 5.2.2 22.1.2 26.5-.1 1.9-.1 6.8.1 10.8.4 6.7.5 7.3.4 8-1.6l.8-2.1 2.7 2.1c2.7 2.2 3.2 2.2 31.5 1.6 32.6-.6 31.5-.6 36.2-.2 1.9.2 7.4.4 12.1.5 6.9.1 8.8.4 9.3 1.7.5 1.3.1 1.4-2.7.8-4-1-73.7-.9-173.2.2-84.3.9-85.7.9-93 .4-6.2-.4-17.6 1.8-15.3 3.1 2 1.1 21.6 4.6 36.1 6.4 6.5.8 21 1.8 32.2 2.1l20.5.7v2.6c0 3.6 1.4 5.4 3.6 4.9 1.5-.3 1.9-1.2 1.8-4.1l-.1-3.7H423c13.7 0 17-.3 18-1.5 1.6-1.9 3.7-1.9 5.7 0 1.3 1.4 14.3 1.5 114.5 1.3 107.9-.3 113-.4 114.3-2.1 1.3-1.8 1.4-1.7 2 .2.6 2.1 1.1 2.1 31.1 2 16.8-.1 30.7-.5 31-1 .3-.5 1.3-.5 2.4.1 1.2.6 11.7.8 28.7.5 14.7-.2 27.7-.4 28.8-.3 1.1.1 61.4.2 134 .2 106.2.1 134.3-.2 143.8-1.3 8.5-1 12-1.8 12.4-2.8.4-1.1.8-1.2 1.3-.2.6.9 2.9.8 10.4-.6 8.8-1.5 9.7-1.9 10.2-4.2.4-1.4.2-2.8-.4-3.2-.6-.4-.4-1.4.8-2.8 2.1-2.7 3-2 3 2.3 0 4.5 2.9 5.2 10.6 2.4 3.2-1.2 7.3-2.4 8.9-2.7 4.7-.7 21.8-6.4 24-7.9 1.1-.8 2.7-1.4 3.6-1.4 2.8 0 28.9-13.1 29.9-15.1.6-1 1.7-1.6 2.5-1.3 1.1.5 6.4-1.9 9.4-4.2.2-.2-.2-1-.9-1.9-1.1-1.3-.7-1.5 2.6-1.5s5.6-1.3 14.9-8.2c6.1-4.5 13.9-11 17.3-14.5 3.5-3.5 6.7-6.3 7-6.3.8 0 17.7-18.9 21.2-23.8 2-2.8 2.2-3.6 1.2-5.2-1.5-2.5-1.6-3.8 0-2.2 1.9 1.9 3.4 1.4 5.3-1.4 1.3-2 1.4-2.9.6-3.7-.9-.9-1.4-.8-2.1.3-1.2 2-2.3.6-1.5-1.9.5-1.6 1.2-1.9 3.4-1.5 2 .4 3.5-.1 5.9-2.1 3.6-3 4.2-5.5 1.2-5.5-1.1 0-2-.5-2-1.1 0-.6.9-.8 2-.4 2.4.8 3.9-2 2.1-3.8-.6-.6-1.1-1.7-1.1-2.4 0-1.1.4-1.1 2-.1 1 .7 2.1 1 2.3.8 1.4-1.5 9.7-19.2 9.7-20.7 0-.9.6-2.4 1.4-3.2 4.6-5.2 17.9-55.5 17.4-66.2 0-2 .2-4.1.6-4.7 1.2-1.9 2.1-22 1.9-41.2-.2-20.2-2.6-43.6-4.9-46-.7-.9-1.1-2.5-.8-3.6.3-1.1-.3-5.6-1.4-10-1.1-4.3-2.3-9.1-2.6-10.7-.4-1.7-1.3-2.7-2.5-2.7-2.7 0-3.3-1.2-1.4-3.2 1.5-1.7 1.4-2.4-1.6-10.6-1.8-4.8-6-14.5-9.4-21.5-5.5-11.5-6.4-12.9-9-13.4-2.8-.6-2.9-.7-1.1-2 1.6-1.2 1.7-1.5.4-2.3-.8-.6-3.2-1.5-5.2-2.2-3.7-1.1-5.2-2.8-2.5-2.8.6 0 1.8-.4 2.6-.9 1.2-.8.6-2.2-3-7.8-11.4-17.6-34.2-42.7-53.4-58.8-14.9-12.5-26.1-20.5-28.5-20.5-1.1 0-2-.7-2-1.6 0-.8-1.9-2.4-4.5-3.5-2.5-1.1-4.5-2.4-4.5-3 0-1-8.3-6.5-15.1-10-2.4-1.3-5.7-3.3-7.4-4.5-1.6-1.2-12.2-6.6-23.3-12-14.9-7.1-20.6-9.4-21.2-8.5-.9 1.6-2-.9-2-4.6 0-2.3-.3-2.5-3-2-2.3.5-6.3-1-19.5-7.3l-16.6-8-3.1 6.5c-1.6 3.6-2.8 7-2.6 7.6.5 1.4 40.7 21.9 43 21.9.9 0 2-.5 2.3-1 1.4-2.2 3.5-1 3.5 2 0 2.6.7 3.3 5.3 5.6 8.2 4.1 11.4 7 13.2 11.9 2.1 5.4 1.5 10.6-2 17.5-1.4 2.7-2.5 6.2-2.5 7.7 0 1.7-.8 3.3-2 4-1 .7-5.8 9.3-10.5 19-8.9 18.5-11.8 22.6-17.2 24.9-5.6 2.4-10.4 1.7-19.7-2.7-4.8-2.3-8.9-4-9.1-3.7-.2.2-1.6 3-2.9 6.1l-2.6 5.7 2.3 1.4c9.8 6 41.8 23.5 43.9 24 1.6.3 2.7 1.1 2.5 1.7-.1.6 5.4 5.1 12.3 10s15 11.3 18.1 14.3c3.1 3 6.6 5.7 7.7 6.1 1.2.3 2.2 1.3 2.2 2.1s3.9 6.1 8.8 11.8c14.5 17.3 23 36.6 26.9 61.1 1.2 7.5 1.4 14.6 1.1 28.3-.3 10-.1 18.5.3 18.8.4.2.1 1.7-.7 3.2-.7 1.6-1.3 4.5-1.2 6.5.1 2.1-.4 4.3-1 4.9-.7.7-1.2 2-1.2 3 0 1.6 1.2 1.8 13.5 1.8 12.2 0 13.7-.2 15.5-2 1.3-1.3 2-3.3 2-5.9 0-2.2.5-4.3 1.2-4.7 1.6-1 6.6 5.3 7.4 9.3l.6 3.3h17.9c17.6 0 21.2-.7 16.7-3.1l-2.3-1.3 2.5-.6c1.8-.5 2.9-.1 3.9 1.4 1.4 1.9 1.5 1.9 2.4-1 1-3.4 2-28.1 1.8-44.4-.2-19.6-3.7-40.2-10.1-60.2l-3.8-11.8h5l-2.2-3.6c-1.1-2-1.9-4.3-1.5-5.1.5-1.4-1.4-9.3-2.2-9.3-.2 0-1.5.7-2.9 1.6-1.3.9-2.6 1.5-2.8 1.3-.2-.2-2.7-4.5-5.5-9.4-11.4-19.9-16.9-26.5-22.2-26.5-2.5 0-3-.3-2-.9 1.2-.8.8-1.1-1.5-1.6l-4.4-1.1c-2.3-.6-7.3 1-7.8 2.5-.3 1 .5 1.2 3.5.7 2.1-.4 4.9-.3 6.3.2 2.3.9 2.3.9-1 2-2.4.9-4.3.9-6.9.1-2.6-.7-4.4-.7-6.4 0-5.8 2.2-8.9 16-4.8 21.3 1.1 1.4 1.9 3.3 1.9 4.4-.1 1 2.1 5.5 4.9 10 20 31.8 28.8 69.5 25.6 110.1l-.6 8.3h-4.9c-4.5 0-4.9-.2-4.3-2.1 1.2-3.8 1-38.2-.2-38.6-.7-.3-.9-1.7-.6-3.9.7-4.4-2.6-24.4-4.4-26.5-.7-.8-1.3-2.7-1.3-4.1 0-3.1-11.4-29.4-14-32.3-1-1.1-3.4-5.3-5.4-9.3-2.5-4.9-4.2-7.2-5.4-7.2-1.5 0-1.8-.9-1.8-4.8.1-2.6 0-9.3-.2-14.9l-.2-10.2-4.5-.3c-3.5-.2-4.3-.6-3.6-1.7.7-1.1 1.5-1.1 4.5-.1 3.2 1 4 .9 7.1-1 1.9-1.2 4-3 4.5-4.1 1-1.7.7-1.9-2.2-2-1.8 0-4.2-.4-5.3-.9-1.4-.6.2-.9 5.1-.9 5-.1 8.6-.7 12-2.2 4-1.8 6-2.1 12.2-1.6 6.7.5 8.1 1 14.2 5.1 5.1 3.4 7.9 6.2 11.5 11.6 3.1 4.7 5.9 7.7 8.2 8.8 3.1 1.5 3.2 1.8 1.7 2.9-1.5 1.1-1.3 1.7 1.9 7.5 8.6 15.4 15.9 35.1 20.9 56.3 4.4 18.6 5 25.6 5.2 57l.1 28 2.3.3c1.9.3 2.2-.1 2.3-3l.1-3.3 1.4 3.3c1.3 2.9 1.9 3.3 3.9 2.8 1.8-.5 2.5-.2 2.5.9 0 .9-.9 1.5-2.4 1.5-1.4 0-3.2 1-4.2 2.2l-1.6 2.3.6-2.8c.6-2.5.4-2.7-2.9-2.7-2.6 0-3.5.4-3.7 1.7-.4 5.4-.9 8.3-4.1 23.8-2.1 10.4-4.9 20.5-7.1 26-2 5.1-3.4 9.7-3 10.8.8 2.4-1.4 7.5-3.5 8.2-2 .6-14.6 24.2-14.6 27.2.1 1.4-.7 2.4-2.1 2.7-1.2.3-4.6 3.8-7.6 7.8s-8.5 10.6-12.2 14.5c-3.7 4-6.5 7.7-6.1 8.3.3.5-.1 1-.9 1-.9 0-1.6.4-1.6 1 0 .5-.6 1-1.3 1-.7 0-5.6 3.4-10.8 7.6-5.1 4.1-13.8 10.3-19.2 13.6-8 4.9-9.7 6.4-9.2 7.9.7 2-.9 2.7-2 .9-1.2-2-2.5-1-2.5 1.9 0 2.1-.6 3.2-2.1 3.6-2.7.9-3.5 0-1.9-2 1.2-1.5-2.4-.4-13.3 4-1 .4-2.2 1.5-2.7 2.5-.6 1.1-1.7 1.6-2.8 1.3-2-.5-19.5 5.1-22.7 7.3-1.1.8-3.2 1.4-4.7 1.4s-8.4 1.4-15.5 3c-10.1 2.5-13.3 2.9-15.2 2-1.9-.8-2.7-.7-4.1.5-1 .9-5.5 2.2-10.5 2.9-6.2.9-9 1.8-9.7 3-.5.9-1.4 1.4-1.9 1.1-.5-.4-.6-1.1-.3-1.7.6-.9-3.2-.9-17.1.2-3.7.3-18.4-1.4-20.3-2.3-1.7-.8-2.8-.8-4.2.1-4.2 2.6-16.1-4.2-21.5-12.4-2.2-3.3-4.3-5.4-5.4-5.4-2.6 0-3.4-2.7-1-3.3 1.6-.4 1.9-1.4 1.9-5.6 0-4.8.2-5.1 2.5-5.1 1.4 0 2.9-.8 3.5-1.9 1.5-2.8 1.3-3.1-2-3.1-1.6 0-3-.3-3-.8 0-.4 1.4-3 3-5.9 2.9-5 7.7-9.1 14.5-12.3 2.6-1.2 26.4-2.9 41.8-2.9 3.7-.1 4.5-.9 2.7-2.7-.5-.5-.5-1.5-.1-2.3.6-.9 1.2-.4 2 1.9 1 3 1.3 3.2 4.3 2.6 1.8-.4 5.3-.9 7.8-1.2 7.1-.8 9-1.3 9-2.8 0-1.1.6-1.2 2.8-.4 3.5 1.3 16.1-1.5 32.2-7.2 13.6-4.8 32.9-14.6 40.4-20.5 1.9-1.5 1.9-1.5-.2-3.8-2-2.1-2.1-2.5-.6-4.5 2.1-3 3.2-2.8 5.1 1.3 1.5 3.1 1.8 3.3 3.2 2 .9-.8 3.3-2.9 5.4-4.6 2-1.7 3.7-3.7 3.7-4.4 0-.7 1.1-1.6 2.5-1.9 1.4-.4 2.5-1.3 2.5-2 0-.8 1.1-2.1 2.4-2.9 3.9-2.6 17.8-21.5 17.6-24-.1-1.2-.2-3.7-.1-5.6l.1-3.3 1.8 2.2 1.8 2.2 3.1-6.8c1.8-3.8 3.5-8.3 3.8-9.9.4-1.7 1-3.9 1.4-5 2-5.1 3.4-9.5 5.1-15.8l1.8-6.7h-13.3c-15.8 0-18.1.6-19 5.2-.8 3.8-5.1 15.6-6.6 17.8-.5.8-1.4 2.6-2.1 4-.7 1.4-1.9 3.3-2.7 4.3-.8.9-1.5 2.5-1.6 3.5-.3 2.4-17.7 20.1-25.6 26-20.5 15.2-55.1 27.6-76.9 27.6-11.1 0-15.4-.9-14.6-2.9.6-1.7-1-3-1.9-1.5-1.8 3-12.8-.6-11.7-3.8.3-.9-.3-1.1-2-.7-2.3.6-22.9-7.4-35.8-14-6.5-3.2-29.2-24.9-28.3-27.1.3-.8-.6-1.6-2.4-2-1.6-.4-9.8-7.3-20.1-16.8-9.6-8.9-19.9-17.9-23-20.2-3.2-2.3-7.3-6.5-9.4-9.6-4-6-6.1-7.2-21.7-12.5-9.2-3-9.7-3.5-20.3-16.7-5.2-6.5-7.8-8.7-14.8-12.7-10.8-6.2-13.7-6.4-18-.9-3.1 3.9-15.7 13-18 13-.7 0-2.5-1.1-4.2-2.5-1.6-1.4-4-2.5-5.3-2.5-2.8 0-4.1-1.5-2-2.4 2.6-1 1.6-2.2-4.2-5-6.2-2.9-13.6-8.6-11.4-8.6 2.3 0-.7-2.9-5.8-5.5-2.5-1.4-8.6-6.2-13.4-10.7-6.8-6.3-9-9.1-9.6-11.8-.7-3.5-.7-3.5-5.7-3.2-4.9.3-5 .2-11.2-6.2-5.2-5.2-7.4-6.8-11.7-8.1-4-1.1-6.2-2.5-8.4-5.3-1.7-2-4.8-5.8-6.9-8.4-2.1-2.6-6.4-6.8-9.7-9.3-8.1-6.2-17-15-19.6-19.2-1.6-2.5-4-4.3-8.4-6.3-4.5-2-7.4-4.2-10.6-8.1-6.3-7.6-11.5-12.9-12.7-12.9-2 0-12 9.2-12.6 11.7-.4 1.4-3.5 5.2-6.9 8.4-4.8 4.6-5.9 6.1-4.9 7.1 2 2 1.4 3.3-.7 1.4-1.7-1.6-2-1.5-4.4 1.8-1.5 1.9-6.1 5.3-10.4 7.6-4.3 2.4-10.5 6.1-13.8 8.3-3.3 2.2-8.3 5-11.2 6.2-2.8 1.3-7.1 4.1-9.5 6.3-2.4 2.2-6.3 5.2-8.8 6.8-2.5 1.6-9.8 7.3-16.3 12.8-11.3 9.5-11.7 9.9-11.7 13.8 0 4.3-2 4.9-3 .9-.5-2.1-1-1.8-8.5 4.4-7.8 6.5-14.5 11.6-31.5 23.9-7.6 5.5-8.1 6.1-7.6 8.8.5 2.7-.6 3.8-1.9 1.8-1.1-1.8-3.2-1.1-9.6 3.2l-6.3 4.1-5.5-2.9c-5.9-3-18-14.6-23.3-22.2l-3-4.4-2.4 2.3c-1.3 1.2-2.4 2.8-2.4 3.6 0 .7-.9 1.3-2.1 1.3-1.1 0-5.6 3.2-10.1 7.1-4.4 3.9-11.4 9.3-15.4 11.9-9.2 6-15.4 10.9-15.4 12.1 0 .5 1.2.9 2.6.9 3.7 0 2.8 3.8-1.5 6.4l-3.3 1.9-1.8-2.3-1.8-2.4-7.8 6.9c-4.3 3.9-20 18.2-34.8 31.8-26 23.8-44 38.7-51.6 42.4-5.4 2.7-22.7 2.4-30.1-.5-4.7-1.9-5.6-2.6-5.2-4.2.6-2.2-.7-2.6-2.4-.9-.9.9-3.2-.3-9.5-5-4.6-3.3-8.6-6.4-9-6.9-.4-.4-2.6-2.8-4.9-5.5-2.3-2.6-4.8-4.7-5.5-4.7-.8 0-1.4-.9-1.4-1.9 0-1.1-.4-2.1-.8-2.3-.4-.2-3.3-3.7-6.4-7.8-3.1-4.1-6.6-8.6-7.8-10-3.1-3.7-11.7-19.2-17-30.5-8.2-17.3-14.8-37.1-15.3-45.6-.5-6.9-1.4-8.7-3.3-6.2-1.2 1.6-1.3 1.6-1.4.2 0-.9.7-2.2 1.5-2.9 2.3-1.9 1.9-6-.5-6-2.6 0-2.6-1.6 0-3 2.7-1.4 2.7-6 0-6.7-2.7-.7-2.5-2.1.2-2.5 2.1-.3 2.1-.4.4-2-1.6-1.6-1.6-2-.2-4 .9-1.3 1.6-4.3 1.6-7.2 0-5.3 2.8-23.2 6.1-38.9 2-9.2 2-9.9.4-11.7-1.6-1.7-1.5-1.9.7-2.2 2-.3 3-2.3 8.3-18.6 5.9-17.8 14.8-36.9 28-60.2 2.4-4.1 4.8-9.2 5.5-11.3.6-2 1.6-3.7 2.1-3.7s1.5-1.2 2.1-2.8c.7-1.5 2.1-3.7 3.2-5 1.2-1.3 2.1-3.8 2.1-5.5 0-2.4.5-3.2 1.7-3.2 1.1 0 3.9-3.5 7.8-9.8 8.3-13.5 16.2-25.2 30.8-45.6 6.8-9.5 12.8-18.6 13.4-20.2.6-1.6 1.9-3.4 2.9-4 1-.5 1.9-1.6 1.9-2.4 0-.7.9-1.6 1.9-2 3.2-1 11.4-11.4 12-15.3.5-2.8 1.2-3.7 3.7-4.6 1.7-.6 10.4-8.5 20.5-18.7 18.2-18.3 27-25.5 38-31.4 5.9-3.1 6.8-3.3 7.9-2 1.1 1.4 1.5 1.2 3.1-1.4 2.5-4.1 8.6-6 13.5-4.2 4 1.5 6.8.1 5.9-2.9-.8-2.5 15.6-5.7 38.5-7.5 18.9-1.4 26.4-2.8 28.9-5.1 1.9-1.7 6.1.2 6.1 2.8 0 1.8.7 1.9 9.3 1.5 5-.2 10.2-.7 11.4-1.1 1.8-.7 2.1-.5 1.6 1.3-.4 1.7-.1 2 2.3 2 1.6-.1 3.9.2 5.2.6 1.8.6 2.2.4 2.2-1.4 0-2.4-1-2.7-2.8-.9-.9.9-1.2.9-1.2-.1 0-.8-.8-2-1.7-2.7-1.7-1.2-1.6-1.3.4-1.4 3.2 0 5.3-1 5.3-2.5 0-1.1-1.1-1-5.5.1-3.1.8-6 1.2-6.6.8-.6-.3-2.1.4-3.4 1.6-3.1 2.9-4.4 2.3-3.3-1.6 1-3.9 5.5-5.6 7.5-2.8 1.1 1.5 1.5 1.5 5 .1 2.1-.9 3.8-1.9 3.7-2.4-.1-.4.7-1.6 1.7-2.6 1.6-1.4 1.9-1.4 1.9-.2 0 2.2 3.8 1.8 5-.5.6-1.1 1.9-2 2.8-2 1.9 0 4.2-1.8 4.2-3.2 0-.4-.5-.8-1.1-.8-.6 0-2.2-.9-3.6-2-3.2-2.5-6.3-2.6-6.3-.2 0 2.6-7 4.2-17.2 3.8-4.7-.2-9.2 0-9.9.5-.7.4-2.6.1-4.3-.9-4.2-2.2-10.4-2.5-13.2-.7-2.9 1.9-3.5 1.9-2.8 0 .5-1.3.2-1.4-2.2-.5-2 .8-3.5.8-5.6-.1-1.5-.6-3.9-.8-5.3-.5-2.4.6-2.5.5-1.5-1.5.7-1.1 1-2.2.8-2.4-.2-.2-7.2-.7-15.6-1.1-11.5-.5-15.5-1-15.9-2-.4-1.1-1.2-.8-3.5 1.1-3.7 3.1-10.3 3.4-13.9.7-1.3-1.1-3.6-2.2-5.1-2.6-1.7-.4-2.8-1.3-2.8-2.3 0-1.3.3-1.4 1.2-.5.7.7 4.2 1.2 8.5 1.2 5.9 0 7.5-.3 8-1.6.6-1.5.7-1.5 1.7-.2.9 1.3 5.7 1.8 24.6 2.7 12.9.6 27.2 1.3 31.7 1.6 5.9.4 8.3.2 8.6-.8.3-.7.6-.5.6.5.1 1.7 2.9 3.8 5 3.8.6 0 1.1-.8 1.1-1.8 0-1.5.6-1.7 3.5-1.4 2.8.3 3.5.1 3.5-1.3 0-1.7.1-1.7 2.1.1 1.2 1 2.3 1.4 2.7.9.4-.6 1.6-1 2.7-1 1.3 0 2-.7 2-1.9 0-2.9 2-3 4.9-.2 3 3.1 5 3.4 4.1.6-.4-1.1-.2-2 .4-2 .6 0 1.1-.8 1.1-1.8 0-2.8 8.1-8.4 9.8-6.8 1.2 1.2-.9 3.3-4.7 4.6l-4 1.3 2.9 3.4c1.7 1.8 3 3.8 3 4.3 0 .6.7 1 1.5 1 1.9 0 3.7-4.1 2.4-5.5-1.6-1.7-.9-3.5 1.4-3.5 1.9 0 3.2-2.3 9.9-18 4.2-9.9 7.2-18.3 6.7-18.6-1.5-.9.1-4.6 2.7-6.7 1.3-1 2.4-2.8 2.4-3.9 0-1.2.7-2.9 1.6-3.9 2.1-2.4 7.4-16.8 6.7-18.5-.3-.8.1-1.4 1.1-1.4 1.7 0 3.9-4 2.7-5.2-1.4-1.5-33.7-8.9-36.8-8.5-2.2.4-3.3.1-3.7-.9-.7-1.9-7-1.8-8.7.2-1.2 1.4-1.4 1.4-2-.4-.5-1.2-2.1-2.2-4.1-2.6-5.7-1-59.8-1.5-70.3-.6zm225.2 407c-.3 1.1.2 3.4 1 5.1 2.4 4.8 3 22.6.9 26.6-.9 1.8-1.6 4.7-1.6 6.4 0 2.6-1 4.3-4.7 7.9-2.7 2.6-5.2 5.3-5.8 5.9-.5.7-3.4 3.4-6.2 6-4.4 4-5.3 5.4-5.3 8.2 0 5-1.9 10.8-3.8 11.8-1.5.8-6.4 13.9-9.1 24.1-.4 1.4-1.6 2.6-3 3-2.8.6-4.1 3-1.7 3 .9 0 1.6-.4 1.6-.9s3.6-1.7 8-2.7c4.4-1 8-2.2 8-2.6 0-.4.8-.8 1.8-.8s3.3-1.5 5.1-3.4c4.9-5.1 10.3-7.2 14.8-5.8 2.9.9 4 .8 5.7-.3 2.5-1.8 4.7-1.9 8-.3l2.6 1.1-3.5 4.3-3.6 4.3 5.8.4c5.6.3 5.6.3-1.4.5l-7.3.2-2.6 4.2c-2.7 4.3-26.6 28.6-34 34.4-2.1 1.8-3.6 3.5-3.2 3.9.9.9 19.2-2.2 24.5-4.2 3.7-1.4 4.9-1.4 9-.2 6.4 1.8 7.9 1.5 13-2.1 3.8-2.8 5.9-3.3 18.5-5.1 7.9-1.1 16-2.7 18.2-3.5 2.1-.8 4.7-1.2 5.7-.9 1.3.4 1.9.2 1.9-.9 0-1 2.8-2.4 8.3-4.2l8.4-2.7 6.8 1.8c4.8 1.3 6.2 2.1 4.9 2.5-1 .4-2.1 2-2.4 3.5-.3 1.6-1.2 2.9-2.1 3-.9.2-3.5 1.5-5.8 3-2.3 1.6-6.5 3.2-9.4 3.6-5.1.8-18.7 6.6-18.7 8 0 .4 1.9 1 4.3 1.3 3.1.5 5.2.2 8-1.3 2.1-1.1 7-2.5 11-3.1 4-.6 10.4-2.2 14.2-3.5 3.9-1.3 11.9-3.1 17.9-3.9 5.9-.9 11.2-1.9 11.7-2.2 1.5-.9 6.9 2.9 6.9 4.9 0 3-4 9.9-5.5 9.4-1.9-.8-2.7.4-1.4 2 3.5 4.1-8.4 10-31.1 15.4-15.1 3.6-46.9 13.9-56.5 18.5-3.8 1.8-9.8 3.9-13.1 4.8-11 2.8-29.8 9.6-34.4 12.5-8.2 5-36 27.2-36 28.8 0 .8.6 1.3 1.3 1 32-13.9 38.8-15.9 59.8-17.6 9.9-.8 11.4-1.2 25.5-7.4 16.8-7.4 18.8-8 33.1-9.7 7.9-1 11.5-1.1 15.5-.2 10.7 2.3 13.8 2.1 21-1.5 3.7-1.8 7.3-3.3 8.1-3.3.7 0 7.5-2.5 15.1-5.6 18.4-7.3 19.6-6.5 4.5 3.6-9.4 6.4-10.5 7.7-15.4 17.4-2.5 5.1-4.7 7.4-13.1 14.2-9 7.3-10.7 8.2-16.5 9.3-9.8 1.8-16.9 4-16.9 5.2 0 .7 4.5.9 13.4.7 12.1-.3 13.7-.5 16.5-2.6 1.7-1.2 4.3-2.2 5.9-2.2 1.6 0 5.5-.9 8.7-2 3.2-1.1 6.8-2 8.1-2 1.4 0 3.1-1.2 4.5-3.3 2.9-4.1 3.8-4.7 7.2-4.7 1.7 0 3.7-1 5-2.5 1.2-1.3 3.7-4 5.5-5.9 2.7-3.1 3.2-4.3 3.2-8.7 0-4.8.3-5.5 4-8.9 7.7-7.1 7.8-7.1 19.2-1.2l10.1 5.3 3.3 7c1.9 3.9 3.4 7.3 3.4 7.5 0 .2-3.2.4-7.2.4-8.3 0-10.8 1.5-10.8 6.5 0 5.3 3 8.1 9.6 8.8 3.7.4 6.9 1.5 9.3 3.1 2 1.4 4.9 2.6 6.3 2.6 1.4 0 4.5.7 6.8 1.5 3.9 1.4 4.8 1.4 8.7-.1 6.3-2.4 10.8-2.1 20.3 1.3 21.2 7.8 31.4 10.5 42.5 11.4 10.5.8 24.1 3.1 25.3 4.3.3.3-10.6.6-24.2.6-23 0-25 .1-27.3 1.9-2.3 1.9-2.5 1.9-4.2.2-1-1-4.9-2.4-8.7-3.1-3.8-.7-7.9-1.7-9.1-2.1-3.2-1.2-3.5.2-1.2 4.9l2.1 4.1 7.9.3 7.9.3-5.1 3.5-5.2 3.5-17.6.6c-9.7.3-18.4.9-19.5 1.4-1.6.7-1.7.5-.9-1.1 1.7-3.3 2.3-8.5 1.3-10.5-1.3-2.3-4.6-2.5-5.4-.3-1 2.5-.7 10.2.4 10.9 2.2 1.4.6 2.3-8.3 4.9-9.9 2.8-14.6 3.1-21.7 1.6-9.8-2.2-9.2-1.8-8.5-4.9.5-2.3.2-2.9-2-3.9-3.7-1.7-4.1-1.6-5.5 1.8-.8 1.9-2 3-3.2 3-1 0-5.3 2.5-9.4 5.5-7.5 5.6-9.4 6.1-9.4 2.4 0-2.1-1.5-2.6-2.6-.8-.4.7-2.4.9-5.8.5-12.3-1.7-12.4-1.7-11.9-3.6.3-1.1-.6-2.5-2.3-3.9-3.4-2.6-3.8-2.3-2.6 2.3 1.1 4 .7 4.4-1.9 2-3.8-3.4-16-.3-25.7 6.4-2.6 1.8-41.9 11.9-42.8 11-.6-.6 3.5-4.8 4.6-4.8.6 0 1-.7 1-1.6 0-.9 2.5-4.5 5.5-8.2 3-3.6 5.1-7 4.8-7.5-.3-.5 0-.8.8-.5.8.3 5.1-2.1 9.6-5.2 8-5.5 8.5-5.8 19.5-7.5 16.3-2.6 17-3.4 3.4-3.4l-12-.1 6.7-4.5c3.6-2.4 8.6-5.5 10.9-6.7l4.3-2.3-3-.3c-1.6-.2-8.4-.2-15 0-11.9.4-12.1.4-21.9 5.1-11.5 5.5-11.9 7.3-1.3 5.8 3.6-.5 7.5-.7 8.7-.4 1.1.3 2 0 2-.6 0-1.9 1.5-1.2 2.7 1.4l1.1 2.5H710c-9.5 0-11.9.3-12.2 1.4-.2.8-5.1 5.2-10.9 9.8-5.8 4.6-10.4 8.8-10.2 9.5.2.6-.6 1.1-1.9 1-1.3 0-3.1.3-4.1.8-1.7.7-1.8.3-1.1-5.3.8-7.2-.1-12.1-1.9-10.3-.6.6-2.6 1.1-4.5 1.1-2.8 0-3.3.3-2.7 1.7.9 2.5 2.5 11.1 2.5 13.8 0 1.9-1.2 2.8-7 5-7.2 2.7-16.5 5.5-18.8 5.5-.9 0-1.1-1.1-.6-3.8.8-4.8-.5-5.9-8.6-7.4-5.1-.9-6.4-.8-7.1.3-.6 1-.9 1.1-.9.1 0-.6-.9-1.2-2.1-1.2-1.4 0-2.4 1-3.2 3-1.3 3.4-3 3.5-3.5 0-.3-2.1-.7-2.2-5.3-1.7-4.7.6-5 .5-7.3-2.9l-2.3-3.5-.7 4c-.5 3.1-1.1 4.2-2.9 4.6-4.8 1-14.1 2.5-14.3 2.2-.2-.1 2.8-3.8 6.7-8.1 3.8-4.4 6.9-8.2 6.9-8.7 0-.7 27.5-16.3 33-18.7l2.5-1.1h-2.7c-1.5-.1-3.3.5-4 1.3-.8.7-5.6 2.6-10.8 4.1-11.1 3.2-44.8 16.1-47 17.9-2.5 2.1-4.8 2.6-5.4 1-.3-.8-1.7-1.4-3.1-1.4-2 0-2.5.5-2.5 2.3 0 1.8-1.7 3.4-7.7 7.3-9.6 6.1-9.3 6-9.3 3.5 0-2.3-2.1-3.4-8.2-4.4l-3.8-.6-.2 6.2c-.1 3.4-.2 7.1-.1 8.2 0 2.8-12.2 12.8-15.6 12.8-1.4 0-4.3-.3-6.3-.7-3.7-.7-3.8-.8-3.8-5 0-6.1-2.9-9.6-8-9.6-4.1 0-5 1.3-5 7.3 0 2.7-.2 2.8-3.7 2.1-2.1-.3-4.2-1-4.7-1.5-1.2-1.1 1-5.3 5.2-9.7 1.8-1.9 3.1-3.6 3-3.6-.2-.1-2.6-1.3-5.4-2.9-2.9-1.5-6.4-2.7-7.9-2.7-2.5 0-2.6.2-2.3 4.1.4 5.2-1.5 6.2-3.7 2-1.6-3.2-5.5-4.4-5.5-1.7 0 2.4 3 9.9 4.7 11.8 1.5 1.7 1.5 1.8-.1 1.8-.9 0-2.5.6-3.6 1.2-1.5 1-2.3 1-2.8.2-.6-1-6.5-2.3-11.4-2.5-1 0-1.8-.4-1.8-.9 0-.4-1.1-1.1-2.5-1.4-1.8-.5-2.7-1.7-3.5-4.7-1.5-5.5-.4-6.6 8.4-7.8 9.6-1.4 9.7-1.7 5.8-9.2-.1-.4 4.6-4.3 10.5-8.6l10.8-8 8-15.2c4.4-8.4 8.8-15.7 9.8-16.3 1.1-.5 5.3-1.2 9.5-1.4 11.5-.8 11.8-.9 15.6-6.9 2.3-3.5 4.9-6.1 7.4-7.4 2.8-1.4 4.1-2.9 4.8-5.3l1-3.3 5.3 5 5.3 4.9 6.3-3.3 6.3-3.4 3.8 2.3c2.2 1.3 4.1 2.5 4.2 2.6.2.1-.1 1.9-.8 3.9-.9 2.8-.9 3.9 0 5 1.8 2.1 3.7 1.9 10.8-1.5 7.8-3.6 9.6-3.7 12.8-.5 1.4 1.4 2.8 2.5 3.1 2.5.4 0 6.1-2.5 12.7-5.7 7.8-3.6 14.1-7.4 17.8-10.6 3.1-2.7 7.2-5.6 9-6.5 2.2-1.1 3.6-2.8 4.3-4.9.5-1.9 1.8-3.6 3-3.9 1.1-.3 4-1.9 6.5-3.4 2.5-1.6 7.4-4 11-5.3 10-3.7 27.2-12.6 26.5-13.7-.8-1.3-3.5-1.3-3.5 0 0 .5-1.8 1-3.9 1-2.2 0-4.2.4-4.5.9-.9 1.5-14.5 3.4-15.9 2.3-.7-.5-4.4-.8-8.4-.7-6.6.1-7.4.4-10.1 3.3-3.2 3.4-6.2 4.2-6.2 1.7 0-1-1.1-1.5-3.5-1.5-3.4 0-4.6 1.2-2.4 2.6.7.4-.5 2.3-3.1 4.9-3.1 3.2-4.5 5.7-5.4 9.4l-1.1 5.1-3.6-2.5c-3.2-2.3-10.4-4.3-21.3-5.8-4.1-.7-4.1-.6-2.1 6 .7 2.2.4 2.3-3.9 2.3-2.9 0-4.6-.4-4.7-1.3-.3-3 .5-5.6 3.7-11.9 1.9-3.8 3-6.8 2.5-6.8s-9.1 3.9-19.2 8.6c-10.1 4.7-24.8 11.5-32.7 15-7.8 3.5-15.7 7.4-17.5 8.8-3.4 2.5-18.8 11.3-27.2 15.4l-5 2.5 3.2 1.1c1.7.6 3.4 1.3 3.7 1.6.3.3-8.1 5.9-18.7 12.3l-19.2 11.8-8-.6c-4.4-.3-10.1-.8-12.6-1.1-4.6-.5-4.8-.4-11.9 5.9-6 5.3-9.7 7.6-20.9 12.6-7.5 3.3-13.9 6.1-14.3 6.1-.3 0-1.6-2.1-2.9-4.6-3.8-8-14.1-12.8-22.6-10.5-3.2.9-4.9.7-9.6-.9-3.2-1.1-8.9-2.1-13.1-2.2-7.1-.3-7.5-.4-7-2.5.6-2.4-2.6-6.3-5.1-6.3-2.8 0-1.5-2.8 2.7-5.9 3.3-2.5 5.2-3.1 9-3.1 4.3 0 5-.3 5.8-2.5 1-2.7 5-3.5 5-1 0 2.8 2.4 1.5 8.1-4.1 4.9-4.9 6.4-5.8 10.9-6.5 3-.5 7.3-.4 10.2.1 9.4 1.8 12.4 1.4 16.7-2.5 3-2.8 4.7-3.5 7.9-3.5 4.4 0 14.1-3.3 18.4-6.2 1.4-1 4.9-2.2 7.7-2.8 2.7-.5 7.6-2 10.8-3.4 3.2-1.3 10.8-3.6 16.8-5.1 6.1-1.5 12.6-3.5 14.5-4.5 1.9-1 11.6-4.6 21.5-8.1 18.5-6.6 20.1-8.2 6-6-3.8.6-12.8 1.5-20 2.1-12 1-13.2 1.3-15.3 3.7-2.2 2.4-2.4 2.5-3.7.7-.8-1.1-1.5-2.2-1.5-2.5 0-1.4 2.8-2.9 4.4-2.3.9.4 12.6-4.5 29-12.1 18-8.3 28.2-12.6 29.5-12.2 1.2.3 2.1 0 2.1-.6 0-.7 5-2.9 11.1-5.1 6-2.1 11.9-4.6 12.9-5.5 1-.9 2.7-4.5 3.8-8.1 1.9-6.3 1.9-6.5.1-7.8-2.9-2-2.4-4.2.9-4.2 2.7 0 3-.5 4.6-6.3 2.1-7.6 4-10.7 6.6-10.7 1 0 2.5-1.1 3.2-2.5 1.7-3.1 47.3-41.4 50.9-42.7 1.4-.5 3.1-1.9 3.7-3.2.5-1.3 4.5-5.1 8.7-8.4 6-4.9 8.3-6.2 11.1-6.2 2 0 3.4-.5 3.4-1.3 0-.6 3.3-2.8 7.3-4.7 6.3-3 7.6-4.2 9.9-8.5 1.6-2.8 4.2-9.5 6-15 3.1-9.7 5.4-14.4 7.2-14.5.4 0 .6.9.3 2z"/><path d="M659 737.9c0 2.2 2.5 4.5 4 3.6 1.6-1 1.2-4.2-.6-4.9-2.6-1-3.4-.7-3.4 1.3zM623.6 773.5c-1.7 1.3-1.7 1.5-.3 2.1 2.3.8 4.7-.2 4.7-2.1 0-1.9-1.9-1.9-4.4 0zM595.1 816.1c-2 1.7-2.3 2.4-1.4 3.8.7 1 .9 3.6.6 5.9l-.5 4.1 3.6-.2c2-.1 3.6-.7 3.6-1.3 0-2.1-2.3-12.9-2.9-13.6-.3-.4-1.7.2-3 1.3zM643.7 822.6c-1.4 1.5-.6 3.4 1.4 3.4 1.4 0 1.9-.5 1.7-1.7-.3-1.8-2-2.7-3.1-1.7zM729.2 840.2c-2.1 2.1-1.3 3.8 1.8 3.8 3.3 0 3.5-.3 2-3.1-1.2-2.2-2.1-2.4-3.8-.7zM604.5 846.1c-1 1.5.3 2.5 1.6 1.2.7-.7.7-1.3.1-1.7-.6-.3-1.4-.1-1.7.5zM571.5 848c-1.3 1.4-1.5 2.4-.8 3.1 1.4 1.4 4.3 0 4.3-2.1 0-2.8-1.5-3.2-3.5-1zM585 849c0 1.8.4 2.9 1 2.5.6-.3 1-1.5 1-2.5s-.4-2.2-1-2.5c-.6-.4-1 .7-1 2.5zM573.4 856.6c.3.9.6 1.8.6 2 0 .2.5.4 1 .4.6 0 1-.9 1-2 0-1.2-.7-2-1.6-2-1.1 0-1.4.5-1 1.6zM775 856c0 .5.9 1 2 1s2-.5 2-1c0-.6-.9-1-2-1s-2 .4-2 1zM687.3 867c-2.4 1-4.3 2.1-4.3 2.3 0 .5 10.3-.9 12.3-1.8.9-.4 1.7-1.1 1.7-1.6 0-1.5-5.3-.9-9.7 1.1zM533.7 877.7c-1.2 1.1-.7 3.3.7 3.3 1.2 0 2.6-2 2.6-3.6 0-.7-2.6-.5-3.3.3zM512.1 881.4c-.9 1.1-.8 1.5.5 2 2.3.9 2.4.8 2.4-1.4 0-2.3-1.3-2.6-2.9-.6zM600.8 920.2c-.6 1.7.1 3.8 1.3 3.8.5 0 .9-1.1.9-2.5 0-2.6-1.4-3.4-2.2-1.3zM678 937c-.9 1.8-.8 2 1.4 2 3.3 0 4.2-1.6 1.7-3-1.6-.8-2.2-.6-3.1 1zM639.5 965.4c-6.5 3-8.3 5.1-5.7 6.5 1.1.6 3.4 3.3 5.1 6 2.9 4.5 4.8 6.1 7.2 6.1 1.8 0 .9-3.7-1.5-5.9l-2.5-2.3 3-2.5c2.3-2 2.9-3.3 2.9-6.4 0-4.7-1.2-4.9-8.5-1.5zM822.6 970.4c-.9 3.7 1.2 8.6 3.7 8.6 3-.1 5.7-2.3 5.7-4.6 0-5.7-8.1-9.1-9.4-4zM784.5 978.1c-.9 1.3.3 6.2 1.8 7.1 1.6 1 3.7-1.1 3.7-3.6 0-3.7-3.9-6.2-5.5-3.5zM717.2 984.8c-2.6 5.4-2.7 6.5-.9 8 2 1.7 8.5-9.2 6.7-11.3-2-2.5-3.4-1.7-5.8 3.3zM640.3 985.7c-1.8.7-1.6 5.8.3 7.4 3.5 2.9 7.1-3.2 3.9-6.5-1.7-1.7-2.2-1.8-4.2-.9zM500.7 992.1c-1.7 1-1.7 1.2-.2 2.9.8.9 1.8 4 2.2 6.9.7 5.8 2.7 6.7 6.4 3 2.6-2.6 2.1-8-1.2-11.5-2.4-2.6-4.4-2.9-7.2-1.3zM660.5 316c.3.5 1.3 1 2.1 1s1.4-.5 1.4-1c0-.6-.9-1-2.1-1-1.1 0-1.7.4-1.4 1zM578.3 321.2c-1.2 1.3-7.3 14.7-13.7 29.8-6.4 15.1-13 30.2-14.6 33.5-1.7 3.3-3 6.9-3 7.9 0 1.1-.6 2.7-1.4 3.5-.7.9-1.7 2.7-2.1 4l-.7 2.3 16-.4 16-.4.4 2.8.5 2.8-11.6.2c-6.4.1-14.2.1-17.4-.1l-5.7-.3-3.5 7.7c-5.5 12-7.9 19.7-7.2 22.7.6 2.2 2.4 3.5 9.2 6.8 9.6 4.5 11 4.7 13.7 2.3 1.9-1.7 1.9-1.6 1.3 1-.6 2.1-.4 2.7.8 2.7.9 0 1.9-.5 2.2-1 1.1-1.7 2.3-1.1 1.8.9-.3 1.3.2 2.3 1.6 3.1 1.8.9 2.5.7 4.6-1.7 2.6-3 3.1-4.3 1.5-4.3-.5 0-.7-.7-.4-1.5.5-1.1 1-1.2 2.4-.3 2.3 1.5 5 .4 5-2 0-1.5.6-1.8 2.4-1.5 1.7.4 2.5 0 2.9-1.4.3-1 .5-.1.6 1.9.1 3.2.4 3.8 2.4 3.8 2.2.1 2.2.1-.5 2.4-2.3 2-2.5 2.6-1.3 3.6 2.1 1.7 5.9.8 7-1.7.5-1.3 2.2-2.4 4.2-2.8 3.2-.6 4.4-2.7 2.3-4-.5-.3-1-1.6-1-2.8 0-4-2.6-6.4-7.6-7.1-2.9-.4-5.2-.2-6 .5-1.8 1.5-1.8-.2.1-2.7.8-1 1.5-2.8 1.5-3.9s.5-2.7 1.1-3.5c.8-1.1.9-.7.4 1.7-.6 2.8-.3 3.4 2.4 4.7 3 1.6 3 1.6 5.8-2.4 2.5-3.6 3.1-4 6-3.5 2.7.5 3.2.3 2.7-1-.5-1.1.1-1.5 2-1.5 2.2 0 2.6-.4 2.6-3 0-3.5.2-3.6 3.6-1.3 2.2 1.4 2.9 1.4 4.6.4 2.8-1.8 4.8.2 2.6 2.6-1.3 1.5-1.4 2.5-.4 5.8 1.4 5 3.5 5.1 5.8.5 2.1-4.4 2.2-6 .3-6-.8 0-1.5-.9-1.5-2 0-1.5.7-2 2.5-2 1.4 0 2.5-.4 2.5-.8 0-2-2.5-2.9-6.6-2.4-4.8.5-6.3-1.2-1.6-2.1 1.5-.3 4.2-.9 5.9-1.5 2.9-.9 3.2-.8 3 .8-.1 1 .2 1.9.8 2 1.2.2 2.8-5.7 2.1-7.6-.8-2-3.4-1.7-3.2.3 0 1.2-.7 1.9-2.1 2.1-1.7.3-2.1 0-1.7-1.2.7-1.9-1.6-2.2-3.4-.4-.9.9-1.7.9-3.5-.1-1.3-.7-4.9-1.1-8.7-.9-6.2.3-6.5.4-6.8 3-.2 1.8.4 3.1 2 4.2l2.2 1.6h-2.1c-1.2 0-2.5.5-2.8 1.1-.4.6-1.9.7-3.6.4-1.8-.4-2.9-.3-2.9.4 0 .6-1.3 1.1-3 1.1-2.1 0-3-.5-3-1.6 0-1.2-.6-1.5-2.3-1-2.1.5-2.3.2-2.1-3.2 0-2-.5-4.6-1.2-5.7-1.9-2.6-1.8-5 .2-6.6 1.5-1.2 1.6-1.1 1 .9-.7 2-.4 2.2 2.9 2.2 3.2 0 3.6-.3 4.2-3.1l.6-3.2 1.4 2.7c1.5 2.9 4.3 3.9 9.4 3.4 2.6-.2 3.5-.8 3.7-2.6.4-2.8 3.2-2.9 4 0 .5 1.9.6 2 1.2.4.5-1.6.7-1.6 3 .1 3.5 2.7 13.4 2.1 12.7-.7-.3-1.1.4-2.6 1.6-3.7 2-1.8 2-1.8 1.4 1.9-.4 2.9-.2 3.8.9 3.8.8 0 1.4-1 1.4-2.4 0-1.9.7-2.6 3.3-3.2 1.7-.4 2.6-.9 1.9-1.2-1-.3-.9-.9.5-2.4 1.3-1.5 1.5-2.2.6-2.5-.7-.3-1.3-1.8-1.3-3.5 0-2.3-.4-2.9-1.5-2.4-2.5.9-4.8-.4-3.4-2 .6-.7.8-1.8.4-2.4-.3-.5-.2-1 .4-1 .5 0 1.3.9 1.6 2 .7 2.2 1.3 2.4 3.5 1 .9-.5 1.9-.5 2.7.2 1.6 1.3 2.6.5 2.8-2 .1-.9 1.1-3.3 2.3-5.2 1.3-1.9 3-6 3.8-9 .9-3 2.2-6.2 3-7 .7-.9 2-3.5 2.8-5.8 1.8-4.9 2.5-4.2-10.4-9.5-8.3-3.4-30.7-13.1-46.5-20.1-9.4-4.2-14.2-4.6-17.2-1.4zM307 336.4c0 1.4 2.9 3.1 3.8 2.2.2-.3.2-1.2-.1-2.1-.8-1.9-3.7-2-3.7-.1zM674.7 337.4c-4.9 1.8-6.4 3.2-8.9 8-2.4 4.8-20.4 46.5-22.4 51.8l-1.3 3.8h22.2c12.2 0 30-.3 39.5-.7 16.4-.6 17.2-.7 17.2-2.6 0-2 0-2 2.3.1 4.3 4.1 6 3 10.5-6.6 5-10.5 6.2-17 3.8-20.7-1.8-2.7-1.4-3 4.1-2.6 1.4.2 2.4-.5 2.8-2 .8-2.4-1-4.2-3.5-3.4-.8.3-3.5-1.1-5.9-3-2.4-1.9-5.3-3.5-6.5-3.5-1.2 0-3.1-.7-4.3-1.5-3.9-2.7-38-17.3-41.9-17.9-2.3-.3-5.5 0-7.7.8zM254.6 366.7c-1.1 1.1-.6 2.3.8 2.3.8 0 1.7-.4 2-.9.7-1-1.9-2.3-2.8-1.4zM758.6 371.2c.4.7 3.6 5.4 7 10.4l6.3 9.2 4.8-.3c19.5-1.3 22.9-2.6 16.1-6.1-2.4-1.3-3.6-1.4-5-.5-3.8 2.4-8.6.2-7.2-3.3.5-1.2 0-1.6-2-1.6-1.5 0-2.9-.6-3.2-1.4-.3-.8-3.1-2.4-6.2-3.7-3.1-1.2-6.1-2.6-6.6-3.1-1.6-1.3-4.8-1-4 .4zM784.6 373.5c-1.1.8-1.7 1.8-1.3 2.1 1 1.1 3.7-.4 3.7-2.1 0-1.8 0-1.8-2.4 0zM748.7 380.1c-.8 1.9-2.4 5.8-3.7 8.7-1.2 2.9-2 5.5-1.8 5.8.6.5 16.8-1.3 17.5-2 .3-.2 0-1.4-.7-2.5-.7-1.4-2.1-2.1-4.2-2.1-3 0-3-.1-1.4-1.9 1.8-2 .6-3.9-1.6-2.5-.8.5-.9.2-.5-1 .4-1 .1-2.7-.7-3.8-1.4-2-1.5-2-2.9 1.3zM817 396.8c0 1.5 2.4 3.2 4.7 3.2 1.3 0 2.3-.5 2.3-1 0-.6-.9-1-2-1s-2-.5-2-1c0-.6-.7-1-1.5-1s-1.5.4-1.5.8zM522.6 399.5c-.7 2 2.1 3.2 3.7 1.6.9-.9.8-1.4-.3-2.1-2.1-1.3-2.7-1.2-3.4.5zM798 399c-1.1.7-.2 1 3.3 1 2.6 0 4.7-.5 4.7-1 0-1.3-6-1.3-8 0zM636.9 401.6c-1.1 1.4-1 1.6.9 1.2 1.3-.1 2.3-.7 2.3-1.3.1-1.7-1.7-1.6-3.2.1z"/><path d="M553.5 404.1c-1 1.5.1 2.2 2.4 1.4 1.2-.3 1.9-1.1 1.6-1.6-.8-1.2-3.2-1.1-4 .2zM678.7 404.1c-1 .6-3.4.8-5.5.5-2-.4-5.2-.2-6.9.3-2 .6-3.3.6-3.3 0 0-.5-5-.9-11.3-.9h-11.3l-6.7 15.7c-5.5 13.1-6.4 15.9-5.2 16.6 1.6.8 2.1 3.7.7 3.7-.4 0-1.3-.5-1.9-1.1-.8-.8-1.7-.1-3.2 3-1.5 2.9-2.8 4.1-4.4 4.1-2 .1-2 .2-.6 1.3 1.5 1.1 1.5 1.9.5 5.8-.6 2.6-1.6 5.2-2.2 6-1.5 1.9-8.4 17.6-9.6 22-1.2 4.5.3 10.7 3.7 14.7 1.7 2.1 7.9 5.4 20.9 11.1 10.1 4.4 19.4 8.1 20.5 8.1 1.2 0 2.4.7 2.7 1.5.3.8 2.2 1.9 4.1 2.6 3.1 1 3.7.9 4.5-.5 1.4-2.4 3.1-1.9 2.4.7-.5 2 .1 2.7 4.1 4.6 2.5 1.2 4.9 1.9 5.4 1.4.7-.8 16.3-37.1 25.9-60.3 2.7-6.7 4.7-12.6 4.4-13.1-.3-.5.1-.9.8-.9.7-.1.3-.9-1-2l-2.3-1.9 3.1-.3c2.8-.3 3.4-1 6.2-7.3 11.1-25.8 14.7-34.9 14.2-35.4-.7-.7-11.1-.8-27.9-.2-6.6.2-13.6.1-15.5-.3-2-.4-4.3-.2-5.3.5zM823.8 403.6c-1.3 1.3-.9 3.5 1.3 6.6 2 2.8 2.2 2.8 4 1.2 1.8-1.6 1.9-1.6 1.9.2 0 1.1-.5 2.5-1.1 3.1-2.2 2.2 6.3 3.5 15.4 2.3 9.7-1.3 11.7-1.8 11.7-3 0-.5-4.3-3.1-9.6-5.6-7.6-3.7-10.9-4.8-16.2-5.1-3.7-.3-7-.2-7.4.3zM755.5 404.7c-1.6.2-3.6 1.2-4.2 2.1-1.2 1.5-1.3 1.4-1.3-.1 0-1.2-.8-1.7-3-1.7-1.8 0-3 .5-3 1.3 0 1.8 3.6 8.2 7.8 13.8 3 4 4.1 4.9 5.9 4.4 1.2-.3 2.5-.1 2.8.5.3.5 2.2 1 4.2 1 3.4 0 16.3-2 17.2-2.6.7-.6-10.2-16.5-12.3-18-1.9-1.3-7.4-1.6-14.1-.7zM783.4 405.5c-.6 1.4 9.1 16.5 10.7 16.5.4 0 1.1-.5 1.4-1 .4-.7 1.1-.7 1.8-.2 1.9 1.5 11.4.8 13.4-1 1.2-1 2.5-1.3 3.8-.8 5.9 2.4 5.8.5-.1-8.3l-4.6-6.7h-12.9c-10.4 0-13.1.3-13.5 1.5zM584.6 406.9c-.3.5.4 1.2 1.7 1.5 2.2.6 2.2.7.3 2.1-1.9 1.4-1.9 1.5.5 1.5 3.2 0 7.6-4.5 5.2-5.4-2.3-.9-7.1-.7-7.7.3zM595 412.5c0 .9.6 1.2 1.5.9.8-.4 1.5-1 1.5-1.5s-.7-.9-1.5-.9-1.5.7-1.5 1.5zM731.2 421.1c-1.8 4.5-3 8.4-2.7 8.7.6.6 15.4-1.4 16.2-2.1.5-.6-8.8-14.7-9.7-14.7-.3 0-2 3.7-3.8 8.1zM521.7 421.7c-1 .9-.8 3.3.2 3.3.5 0 1.1-.9 1.4-2 .5-2-.3-2.6-1.6-1.3zM290 422.9c-6.3 2-11.4 5.7-19.3 14.3-24 26.1-47.2 55.8-68.7 87.9-6.7 10-13.1 19-14.1 20s-1.9 2.4-1.9 3c0 .7-7.6 14.3-17 30.3-9.3 16.1-17 29.7-17 30.3 0 .7 1.4.8 4.1.3 2.3-.4 8.7-.5 14.3-.3 6.5.4 11 .2 12.3-.5 1.3-.7 2.3-.8 3-.1.6.6 3.6.9 6.8.7l5.8-.3 4.9-8.5c3.1-5.5 4.7-9.3 4.5-10.8-.3-1.7.2-2.6 1.8-3.2 2.5-1 14.5-19.3 14.5-22.2 0-1 .6-1.8 1.3-1.8.6 0 4.8-5.5 9.2-12.3 16.2-24.7 40.1-55.9 59.4-77.6 5.5-6.3 10.1-12.3 10.1-13.3 0-1.1.4-1.6 1-1.3 1 .6 4.8-5 7-10.4 1.8-4.6 1.7-10.9-.4-15.3s-8.7-9.3-11.6-8.5c-1.1.3-2.3.1-2.6-.4-.6-1.1-3.9-1-7.4 0zM602 424.5c0 .8.5 1.5 1 1.5.6 0 1-.7 1-1.5s-.4-1.5-1-1.5c-.5 0-1 .7-1 1.5zM875 423.7c0 .5 1.1 2.1 2.5 3.8 2.2 2.8 2.4 2.8 2.5.8 0-3.4-1.1-5.3-3.1-5.3-1 0-1.9.3-1.9.7zM880.4 424.6c.3.9.6 1.8.6 2 0 .2.9.4 2 .4 1.4 0 2.6 1.1 3.5 3.2 1.5 3.7 1.2 4.6-.9 2.9-1.5-1.3-3.6-.7-3.6 1 0 .5.7.9 1.5.9.9 0 2 1.1 2.5 2.4 1.4 3.8 10.6 6 13 3.1.7-.8 1.9-1.5 2.6-1.5.8 0 1.4.7 1.4 1.5 0 1.9 1 1.9 6-.1 4.4-1.8 5.4-3.9 1.5-3.2-1.8.4-2.5.1-2.5-1.1-.1-1.3-.3-1.3-1.5.3-1.5 2-1.9 1.6-1.6-1.4.2-1.8-5.9-4.3-8.2-3.5-.9.4-2.1-.2-2.9-1.4-.7-1-4-3.1-7.2-4.5-6.9-3.1-7-3.1-6.2-1zM853.3 427c-.6 2.3-2.3 2.7-2.3.5 0-1.7-1.5-1.8-8.4-.9-4.3.6-6.3 2.7-3.4 3.6.7.3 2.2 2.2 3.3 4.4 2.3 4.4 4.3 5 17.5 5.5 7.1.2 7.5.1 7.8-2 .2-1.4.9-2.1 1.7-1.7 2.6 1 2.3-.7-1.2-5.5-3.9-5.5-5.3-6.1-5.3-2.4 0 1.6-.6 2.5-1.6 2.5-1.2 0-1.5-.7-1.2-3 .4-2.8.3-3-3-3-2.5 0-3.5.5-3.9 2zM607.4 428.7c-.8 2.7-.3 2.6-4.7.8-3-1.2-3.7-1.2-4.7 0-.6.7-1.8 1.1-2.6.8-2-.7-1.8 1.4.3 2.6 1.5.8 1.6 1.2.4 3.4-1.4 2.7-.6 7 1.2 6.4.7-.2 1.7-2 2.2-4.1 1.6-5.8 6.2-8 4.9-2.4-.6 2.9-.5 3.1 1 1.9.9-.7 1.6-2.4 1.6-3.7 0-1.5.6-2.4 1.5-2.4 1.7 0 1.8-.6.5-3.5-.9-1.9-.9-1.9-1.6.2zM813.3 429.7c-2.4.2-4.3.7-4.3 1 0 .4.9 1.7 2.1 2.9 1.2 1.2 1.8 2.7 1.4 3.3-1 1.8-1.9 1.3-4.3-2.4-1.5-2.5-3-3.5-4.7-3.5-3 0-3.1 1.1-.8 5.1 1.3 2.1 2.4 2.9 3.6 2.5 1.5-.4 1.8 0 1.4 1.6-.8 2.8 4.9 11.2 7 10.4.8-.3 1.7-.6 1.9-.6.2 0 .4-1 .5-2.3v-2.2l1.6 2.2c.8 1.3 2.4 2.3 3.4 2.3s2.1.4 2.4 1c.6.9 15.4.3 16.5-.7 1.2-1.1-3.7-3.3-7.1-3.3-2.2 0-3.9-.5-4.2-1.4-.3-.8-2.2-1.9-4.2-2.6-4.9-1.6-3.9-3.3 2.3-4.3l5.2-.9-3.1-4.4c-3.3-4.8-3.5-4.8-16.6-3.7zM196.6 430.8c-.3.6-.1 1.4.5 1.7 1.4.9 2 .2 1-1.4-.6-.8-1.1-.9-1.5-.3z"/><path d="M608.4 434.1c-.3.6-.1 1.5.7 1.9 1.6 1 5.2-.7 4.4-2.1-.8-1.3-4.2-1.1-5.1.2zM776.5 434.1c-10.6 1.5-12.6 2-12 3 .4.5 1.6 1 2.8 1 1.7.1 1.8.2.5.6-2.5.6-2.3 1.8 1.3 6.9 2.2 3.2 4 4.7 6.2 5.1 3.1.7 3.1.7.8 1.3-2.4.5-2.3.7 2 3.2 3.9 2.4 4.5 2.5 5.6 1.2.9-1.2 1.6-1.3 3.2-.5 3.2 1.8 3.4 1.3 1.2-2.4-1.4-2.5-1.7-3.5-.7-3.5.7 0 2.1-.9 3-1.9 2.7-3 5.3-1.7 4.8 2.5-.5 4.4.4 4.3 2.3-.2l1.5-3.6-4.8-6.7c-5.4-7.4-6.3-7.7-17.7-6zM870 439c0 .5 1 1 2.3 1 1.8 0 1.9-.2.7-1-1.9-1.3-3-1.3-3 0zM727.8 439.7c-1.7.4-1.6.7.2 4.3 3.2 6.3 5.7 8 11.4 8l5.1-.1-3.7-3c-4.4-3.6-4.1-6 .3-2.8 1.9 1.3 3.8 1.9 5.3 1.5 1.6-.4 3 .1 4.6 1.9 2.6 2.8 6.1 3.2 7.9 1.1 1-1.2.7-2.3-1.3-5.4-2.7-4.2-6.8-6.1-9.2-4.1-1.1.9-2.3.7-5.4-.5-3.8-1.5-11.3-2-15.2-.9zM461.5 441c-.3.6.1 1.3 1 1.6 1.9.8 3 0 2-1.5-.8-1.4-2.2-1.4-3-.1zM606.1 442.1c-.7 2-.5 2.5 1 2.7 1.1.2 2.6.2 3.5 0 1.3-.2 1.1-.8-1-2.7l-2.6-2.4-.9 2.4zM476.3 444.6c-.8 2.1.1 2.6 2.2 1.1 1.6-1.3 1.6-1.4.1-2-1-.4-1.9-.1-2.3.9zM851.2 446.7c.3 1.9 3.9 2.9 6.6 1.8 1.5-.6 1.5-.8-.2-2.1-2.9-2.1-6.8-1.9-6.4.3zM863.2 446.6c1.1 1.1 2.5 1.5 4.3 1 3.6-.9 2.2-2.6-2.3-2.6-3.4 0-3.5.1-2 1.6zM602.8 446.7c-2.4.6-2.3 2 .2 3.3 1.8.9 2 .8 2-1.5 0-1.4-.1-2.4-.2-2.4-.2.1-1.1.3-2 .6zM958 446.9c0 1.1 2.5 2.1 5.3 2.1 2.2-.1 2.2-.1.3-1.5-2.2-1.7-5.6-2-5.6-.6zM594 449.5c0 1.6 1.7 1.9 4.4.9 2.2-.9 1-2.4-2-2.4-1.5 0-2.4.6-2.4 1.5zM566 452.9c0 1.9 3.5 3.9 4.8 2.6.9-.9-1.3-4-3.2-4.3-1-.2-1.6.3-1.6 1.7z"/><path d="M790 452.5c0 .8.4 1.5.9 1.5s1.1-.7 1.5-1.5c.3-.9 0-1.5-.9-1.5-.8 0-1.5.7-1.5 1.5zM190.2 456.5c-2.3 2.4-3.8 4.6-3.4 4.9 1.5.9 8.6-1.3 9.9-3 .7-1 1.3-2.8 1.3-4.1 0-3.6-3-2.8-7.8 2.2zM910.3 452.6c-.9.4-.9 1.3-.2 3 1.2 3.3 1.2 3.4-.7 3.4-1 0-1.4-.6-1-1.5.7-1.9-2.3-3.5-6.8-3.5-4.8 0-5.3 1.5-1.9 5.6 1.5 1.9 4.4 6.1 6.4 9.1 4.2 6.7 5.7 7.8 9.2 6.9 1.9-.4 2.7-1.3 2.7-2.9 0-2.9 1.8-4.7 4.6-4.7s4.7 2.4 4 4.8c-.6 1.7-.2 1.8 4.4 1.2 2.7-.3 5.2-.8 5.4-1.1.9-.9-4.9-8.8-7.4-10.1-1.4-.7-2.7-1.4-2.9-1.5-.2-.1.1-.8.7-1.6.8-.9.5-2.1-1.4-4.5-2.4-3-3-3.2-8.2-3.1-3.1 0-6.2.3-6.9.5zM715.1 458.6c-1.2 3.2-2 5.8-1.9 5.9.8.7 15.8-.9 15.8-1.7 0-2.3-4.3-6.8-6.5-6.8-1.2 0-2.5-.7-2.9-1.5-1-2.7-2.3-1.6-4.5 4.1zM748.3 455.5c-1.4 1-2.4 1.2-2.8.5-1.3-2.1-4.3-1-4.8 1.7-.3 1.6-.2 3.1.1 3.4.8.7 17.1-.6 17.9-1.5.4-.3.1-1.7-.5-3.1-.9-1.9-1.9-2.5-4.5-2.5-1.8 0-4.2.7-5.4 1.5zM937 454.9c0 .5.8 1.9 1.8 3.2l1.9 2.2 1.1-3.1c1.1-3.1 1-3.2-1.9-3.2-1.6 0-2.9.4-2.9.9zM950.2 454.8c-1.8.3-2.1.8-1.6 2.9.7 2.7.8 2.7-4.2.7-.5-.3-1.8.4-2.8 1.5-1.7 1.8-1.7 1.9.4 2.6 1.3.4 1.9 1.2 1.6 2.1-.3.8-.9 2.1-1.2 2.9-.4 1.1 0 1.5 1.6 1.5 1.2 0 2.8.7 3.7 1.5 2 2 3.7 1.4 4.1-1.3.4-2.3 2.8-2.1 4.8.4.8 1 2.8 1.2 7.7.7 5.5-.5 6.7-.9 6.7-2.3 0-1-1.3-2.3-2.9-2.9-1.6-.7-2.8-1.9-2.7-2.9.1-2.1-4-4.2-8.6-4.2-2.7 0-3.7-.5-4-1.8-.2-1.1-1-1.6-2.6-1.4zM573.5 456.1c-.4.6-.5 1.3-.2 1.6.7.7 2.7-.6 2.7-1.8 0-1.2-1.7-1.2-2.5.2zM763 456.9c0 1.2.6 2.1 1.5 2.1.8 0 1.5-.4 1.5-.9s-.7-1.4-1.5-2.1c-1.3-1-1.5-.9-1.5.9zM879.3 457.6c-.4 1.1.2 2.3 1.7 3.4 2 1.5 2.1 1.9.9 4.1-1.1 1.9-1.4 2.1-1.7.7-.2-.9-1.5-2.4-2.9-3.3-2.4-1.6-2.5-1.8-.8-2.7 2.6-1.5.1-2.8-5.6-2.8-4.4 0-4.7.2-6.4 3.9l-1.7 3.9 5.2 7.7 5.2 7.7 5.1-.6c2.9-.4 6.7-.7 8.5-.8 2.4-.1 3.2-.6 3.2-2 0-1.8.2-1.8 2.2-.4 1.2.9 3.3 1.6 4.5 1.6 2.6 0 2.4-.7-2.6-9.4-5.9-10.2-13-15.5-14.8-11zM860.3 458.8c-.8.5-.8 1.2.3 2.6 1.3 1.9 1.4 1.9 1.4-.7 0-3 0-3-1.7-1.9zM836.5 460.7c-1.6.2-3.7.7-4.5 1-.8.3-2 .5-2.6.5-.5-.1-1.8 1.3-2.7 3.2l-1.6 3.5 6 7.5c3.6 4.6 6.7 7.6 7.8 7.6 3.3 0 22.5-2.1 22.9-2.5.3-.2-.6-2-1.8-4-2-3.2-2.3-3.4-3.5-1.9-.7 1-1.7 1.4-2.4 1-.9-.6-.8-1.3.5-2.7 1.7-1.9 1.6-2.2-2.2-7.7-3.7-5.5-4.1-5.7-8.4-5.8-2.5-.1-5.8 0-7.5.3zM822.5 463.1c-1 1.5.3 2.5 1.6 1.2.7-.7.7-1.3.1-1.7-.6-.3-1.4-.1-1.7.5zM807.3 465.5c-1.4 1-2.4 1.2-2.8.5-1-1.6-5.8-1.1-8.4.9-2.2 1.7-2.7 1.7-4.7.4-2.2-1.4-6.4-1-6.4.6 0 .7 6.6 4.3 10 5.4 1 .3.6.7-1.2 1.2-3.4.9-3.3.8-.6 5.6 1.6 2.9 2.6 3.8 4 3.3 1-.3 1.8-.1 1.8.5s-.4 1.1-1 1.1c-.5 0-.7.7-.3 1.6.6 1.6 3.2 1.6 21 .1 6-.5 6.2-2 .8-9.8-2.7-3.9-5.7-7.6-6.7-8.2-1-.7-1.8-2-1.8-2.9 0-2.2-.9-2.3-3.7-.3zM762.8 468.9c-2.7.4-5.3 1.2-6 1.9-.7.7-2.7.9-5.5.5-4.7-.6-5.1-.2-2.5 2.6.9 1.1 3.9 5.6 6.7 10 2.7 4.4 5.6 8.3 6.3 8.6 1.4.5 21.8-1.4 24.4-2.4 1.4-.5.9-1.8-3.8-8.6-5.7-8.4-10.9-13.5-13.4-13.3-.8 0-3.6.4-6.2.7zM724.8 473.5c-.2.3-3.6.7-7.3 1-3.8.3-7.1.8-7.4 1-.5.5 12.6 20.2 14.1 21.1 1.4.9 24.8-1.8 24.8-2.9 0-1.5-4.3-8.7-5.2-8.7-.4 0-.8.8-.8 1.7 0 1.5-.2 1.6-1 .3-.6-.8-.8-2.6-.5-4 .4-1.8-.3-3.5-2.6-6.3-2.8-3.4-3.4-3.7-8.3-3.7-2.9 0-5.5.2-5.8.5zM993.3 476.7c-.9.3.8 3.5 4.8 9.4 3.4 4.9 6.5 9.1 6.9 9.4.6.4 3-4.4 6.8-13.7.2-.4-2.2-1.9-5.3-3.3-5.4-2.3-10.3-3-13.2-1.8zM967 479.5c-5.2.8-9.8 1.4-10.2 1.4-1.6.2-.7 2.9 2 6.5 1.5 1.9 4.3 6.1 6.2 9.1 2.6 4.2 3.8 5.4 5.2 4.9 1-.3 2.9.3 4.4 1.5 3.1 2.5 4.4 2.6 4.4.7 0-1 1.7-1.6 5.8-2.1 3.1-.3 7-.9 8.5-1.3l2.8-.7-7.3-10.5c-8.4-12-7.4-11.5-21.8-9.5zM932.5 483.1c-3.3.4-7.9 1.1-10.2 1.4-3.4.5-4.1.9-3.6 2.3.9 2.3 12 18.9 13.2 19.7 1.3.7 24.4-1.5 25.4-2.5.5-.4-2.3-5.6-6.2-11.4-7.9-11.8-6.8-11.2-18.6-9.5zM570.5 486c-.4 1.2-.1 2.8.6 3.6 1 1.2 1.4 1.2 2.6-.6 1.2-1.7 1.2-2.4.3-3.5-1.7-2-2.7-1.9-3.5.5zM1016.4 494.6c-2.4 5.2-4.4 10.2-4.4 11 0 .8-1 2.8-2.1 4.4-1.5 2-2 3.6-1.5 5.4.4 1.8.3 2.5-.6 2.4-1.9-.4-8.9 13.4-7.6 14.9.7.9.7 1.3-.2 1.3-.7 0-1 .7-.6 1.5.3.9 0 1.5-.9 1.5-1.3 0-5.5 6.7-5.5 8.7 0 .4 1.6 1.9 3.5 3.2 4.5 3.1 3.7 4-.9 1.1l-3.6-2.2-2.1 4.8c-1.3 3.1-1.6 5-.9 5.2.6.2 0 1.2-1.4 2.3-1.3 1-3.1 3.7-4 6.1-1.6 3.9-1.6 4.2.1 5.2 1.6.9 1.5 1.1-1.1 1.6-2.4.4-3.2 1.4-5.1 6.5-1.2 3.3-4.5 10.9-7.4 16.9-2.8 5.9-5.1 11.2-5.1 11.7s.9.9 2 .9 2 .5 2 1c0 .6-1.2.9-2.7.8-2.6-.3-3.1.4-8 10.2-3.3 6.6-5.1 11.4-4.9 12.9.3 1.8-.5 3.3-2.5 5.2-3.1 2.9-3.5 4.4-1.9 6.9.8 1.2 1.2 1.3 1.9.2s.9-1.1 1.4.2c.4.9 1.4 1.6 2.4 1.6.9 0 2.6.8 3.7 1.9 2.7 2.3 63.2 29.1 65.9 29.1 1.1 0 3.1.9 4.3 2.1 5 4.7 15.2 4.3 20.6-.8 2.7-2.5 13.8-22.9 13.8-25.3 0-.5-2.8-2.4-6.2-4.1-3.5-1.7-12.5-6.5-20.1-10.7-15.1-8.2-21.6-10.3-22.4-7.1-.7 2.5-2.8 2.4-4.7-.3-1.4-1.9-1.4-2.4-.2-3.6 1.1-1.2 2.1-1.2 4.7-.3 5 1.7 5.9 1.4 7.5-2.7.8-2 3.2-7.3 5.4-11.7 4.9-10 47.8-102.9 48.2-104.4.2-.9-38.9-19-52-24.2-2.2-.8-2.6-.3-6.8 8.7zM702.5 488c-.4.6-.4 2.3 0 3.9.5 2.3.2 2.9-1.4 3.4-2.2.5-2.8 3.1-1.1 4.2 1.7 1 12-.6 12-1.9 0-.7-1.3-3.3-3-5.9-2.8-4.5-5.2-5.8-6.5-3.7zM888.5 488.1c-3.8.5-7.3 1.3-7.6 1.7-1 1 11.6 18.8 14.7 20.8 2 1.4 3.1 1.4 6.8.5 2.5-.6 7.2-1.1 10.6-1.1 4.4 0 6.2-.4 6.6-1.5.3-.8-2.2-5.7-6-11.5l-6.6-10-5.7.1c-3.2.1-8.9.6-12.8 1zM853.3 492.3c-5.7.5-10.3 1.2-10.3 1.7 0 .4 1.4 2.6 3 4.8 3.5 4.9 6.7 5.6 7.2 1.5.7-5.6 4.2-3 5.8 4.4.8 3.4-.1 4.3-4.1 4.3-1.7 0-1.8.3-.9 2 2.4 4.5 4.6 5 16.5 3.4 6.1-.8 11.6-1.5 12.3-1.6.8-.2-1.6-4.5-6-11.1-8.2-12.1-5.7-11.1-23.5-9.4zM820.8 496c-2.1.4-4.7 1.5-5.8 2.5-1.8 1.6-2 1.6-2 .2 0-1.2-.9-1.7-2.9-1.7-1.7 0-3.3.4-3.6 1-.8 1.2 13.2 22 14.8 22 4.3-.2 23.9-2.9 24.4-3.4.7-.7-8.5-14.4-12.5-18.9-2.7-2.8-5-3.2-12.4-1.7zM779.7 500.5c-5.9.7-11 1.4-11.2 1.7-.4.3 12.7 20.5 13.8 21.4.5.4 25.7-2.2 26.1-2.7.3-.3-2.7-5.3-6.7-11.2-5.3-7.9-7.7-10.6-9.2-10.6-1.1.1-6.9.7-12.8 1.4zM750.5 504.1c-2.7.4-8.1 1-11.8 1.2-3.7.3-7 .7-7.3 1-.6.5 2 5 4.3 7.7.8.8 3.1 4.3 5.3 7.7 3.2 5.1 4.5 6.3 6.6 6.3 5.3 0 21.9-2.3 22.8-3.1 1-.9-11.8-20.5-13.8-21.1-.6-.2-3.3-.1-6.1.3zM698.8 509.7c-2.6.7-1.8 7.9 1.1 9.9 1.1.8 2.1 2 2.1 2.6 0 .6 1.3 3.2 3 5.8l2.9 4.6 13.3-1.4c7.3-.8 13.5-1.6 13.7-1.8.3-.2-.8-1.8-2.4-3.4-1.6-1.6-3.8-4.5-4.9-6.3-5.2-8.3-6.1-9.6-7.6-9.7-5.3-.5-19.8-.8-21.2-.3zM982.3 510.9c-2.8.4-5.4.9-5.7 1.2-.3.3.2 1.5 1 2.8 1.3 1.8 1.9 2 3 1 2-1.6 2.8-.5 1.5 2-1.1 1.9.7 5.4 6.6 13.1.6.7 2.2-2.2 3.5-6.5.6-2.2 1.8-4.7 2.5-5.6.7-.9 1.1-2.3.7-3.2-.4-1.1 0-1.9 1-2.3.9-.3 1.6-1.2 1.6-2 0-1.5-5.8-1.7-15.7-.5zM960.5 515c-1.5 1.7-2 1.8-3.7.5-1.1-.7-3.4-1.2-5.2-1-13.4 1.7-12.7 1.5-11.6 3.6.6 1 1.8 1.9 2.8 1.9 1.3 0 1.4.2.3.9-1.1.7-.9 1.5 1 4 1.4 1.9 2.9 2.9 3.7 2.6 1-.4 1.2 0 .8 1.1-.9 2.4 3.9 9.4 6.4 9.4 3.8 0 22.5-2.3 23.7-2.9 1.4-.7-13.1-22.1-15.1-22.1-.7 0-2.1.9-3.1 2zM912.6 519.1c-5.5.5-10.2 1.1-10.4 1.4-.6.6 3.3 6.7 7.4 11.6 1.9 2.3 3.4 4.9 3.4 5.8 0 2.8 2.1 4.1 6.6 4.1 5.1 0 7.4-.8 7.4-2.5 0-1 .7-1 3.8 0 3.5 1.3 8.8 1 10.4-.4 1.1-.9-4.1-8.3-5.3-7.6-.5.4-.7 1-.4 1.5.8 1.2-.5 4-1.9 4-.9 0-1.2-1.9-1.1-6.1.1-4.7-.3-6.8-2-9.3-2.4-3.6-3.5-3.8-17.9-2.5zM687.4 524.2c-.3 1.3-1.3 3-2 3.9-1.3 1.5-.9 1.9 3.5 3.8 5.1 2.2 8.1 2.7 8.1 1.4 0-1.3-7.2-11.3-8.1-11.3-.4 0-1.1 1-1.5 2.2zM873.5 523.2c-4.4.5-8.3 1.3-8.7 1.7-.5.4 2.5 5.4 6.5 11.1l7.3 10.5 4.9-.3c2.8-.2 5.8-1.1 6.8-2 1.5-1.3 2-1.4 2.6-.3.6.8 1.4 1 2.2.5.7-.4 2.7-.7 4.4-.6 1.6.1 3.6-.2 4.4-.7 1.1-.7.9-1.1-.8-2-1.1-.7-2.1-2-2.1-3.1 0-1-1.3-3.1-2.9-4.7-1.6-1.6-3.8-4.8-5-7.1-2.1-4.1-2.3-4.2-6.9-4.1-2.6.1-8.3.6-12.7 1.1zM837 527.4c-9.2 1.1-9.7 1.3-9.1 4.5 0 .5 1.5 1.4 3.1 2 2.3.8 3 1.6 3 3.6 0 1.5 1.6 5.1 3.6 8.1 3.6 5.4 3.6 5.4 7.7 4.8 2.3-.3 5.8-1 7.7-1.5 1.9-.5 5.9-.9 8.8-.9 3.8 0 5.3-.4 5-1.3-.2-.6-3.2-5.6-6.8-10.9-7.4-11.1-5.5-10.4-23-8.4zM800.1 531.6c-5.7.7-10.5 1.5-10.7 1.7-.2.1 2.6 4.6 6.2 9.7 3.6 5.2 6.9 10.1 7.3 10.9 1.2 1.9 18.4 0 21.1-2.4 1.6-1.5 2.2-1.6 3.5-.5 3.8 3.2 2.1-.7-4.6-10.4-8.2-12-6.1-11.2-22.8-9zM768.5 535.1c-14.3 1.7-15.5 2-15.5 3.4 0 .8 1.1 2.2 2.5 3.1 1.4.9 2.5 2.3 2.5 3.1 0 2.7 4.1 8.3 6 8.3 1.4 0 1.8.7 1.7 2.7-.2 2.5.2 2.8 3.1 3.1 2.6.3 3.4-.1 4-1.9.7-1.9 1-2 1.5-.6.5 1.2 1.8 1.7 4.8 1.7 3.3 0 4.2-.4 4.6-2 .5-2 .7-2 2.4-.4 1.5 1.4 2.1 1.4 3.4.4.8-.7 1.5-1.6 1.5-2.1 0-2.1-12.6-19.8-14-19.7-.8 0-4.6.4-8.5.9zM724.1 540.1c-3.5.4-6.5 1-6.7 1.2-1.4 1.4 1.6 3.9 6.2 5.3 3 .8 5.4 1.9 5.4 2.3 0 1 11.5 6.1 13.5 6.1.8 0 3.1 1.1 5.1 2.5 3.8 2.6 7.4 3.3 7.4 1.5 0-.6-.5-1-1-1-.6 0-1.6-1.2-2.2-2.8-.7-1.5-3.2-5.7-5.7-9.5l-4.4-6.7-5.6.1c-3.1.1-8.5.5-12 1zM976 545.5c-3 .7-7.4 1.4-9.7 1.4-3.8.1-7.5 2.1-3.9 2.1 1 0 1.6.9 1.6 2.2 0 2.9 6.9 12.8 8.9 12.8 1.3 0 6.8-10.6 9.9-19.1.4-1 .5-1-6.8.6zM945.7 549.1c-1 .6-2.9.8-4.3.5-1.3-.4-5.4-.1-8.9.5-6.3 1.1-6.5 1.2-6.5 4 0 1.7.6 3.2 1.5 3.5.8.4 1.3.9 1 1.3-.2.4 1.3 3.3 3.4 6.5l3.8 5.7 3.2-2.6c1.9-1.6 3.1-3.6 3.1-5.1 0-1.7.4-2.2 1.5-1.8 2.7 1.1 1.6 4.3-2.5 7.2-2.1 1.5-3.9 3-4 3.4 0 .4 3.2.5 7.1.2 5.6-.3 7.7-.9 9.5-2.7 1.3-1.2 2.4-2.8 2.4-3.5 0-.6.7-1.2 1.5-1.2 2 0 1.9-.6-.6-4.1-1.2-1.7-2.8-2.9-3.8-2.8-2.3.3-7.1-1.2-7.1-2.2 0-1.1.3-1.1 3.5.1 4.1 1.6 4.7.3 1.8-4-2.8-4.4-3-4.4-5.6-2.9zM303.5 552c-.3.5.3 1 1.4 1 1.2 0 2.1-.5 2.1-1 0-.6-.6-1-1.4-1-.8 0-1.8.4-2.1 1zM898 554.1c-3 .5-6.7 1.1-8.3 1.3-1.5.2-3 .6-3.3.9-.7.7 4.6 8.8 6.8 10.5 1 .7 1.8 2 1.8 2.8 0 .8.7 1.7 1.5 2 .8.4 1.5 1.4 1.5 2.4 0 3.2 2.1 3.9 9.4 3 4.7-.6 7.5-1.5 9.1-3 1.9-1.8 2.3-1.9 2.8-.6.7 1.7 5.7 2.2 5.7.6 0-.5-.9-1.4-2-2-1.1-.6-2-2.1-2-3.3 0-2.9-7.6-14-9.8-14.4-6.1-1-8.3-1-13.2-.2zM858.5 558.4c-9.8 1.2-11.2 2.4-7.6 6.3 1.3 1.4 2.8 1.9 4.1 1.6 1.9-.5 2-.3.9 2-1 2.2-.7 3.1 2.2 7.3 1.9 2.6 3.7 5.2 4 5.7.5.8 25.6-1.7 26.5-2.6.2-.2-2.9-5.1-6.9-11-8.2-12.2-6.3-11.4-23.2-9.3zM829 561.7c-7.6.8-17 2.5-17.5 3.3-.6.9 11.3 18 12.6 18 .5 0 .9.7.9 1.5 0 .9.9 1.5 2.3 1.5 3.2-.1 23.8-2.7 24.1-3.1.2-.2-3-5.2-7.1-11.2-5.8-8.4-7.9-10.7-9.6-10.5-1.2 0-3.8.3-5.7.5z"/><path d="M1059.2 567.2c-1.6 3.5-8.4 18.1-15.1 32.6-6.7 14.4-11.9 26.7-11.6 27.2.4.6 4.2 2.8 8.4 5 5.4 2.7 8.1 3.6 8.9 2.8.7-.7 1.2-.4 1.7 1.1.3 1.2 1.5 2.1 2.6 2.1 1 0 1.9.4 1.9 1 0 .8 9 6 10.4 6 .3 0 .3-1.4 0-3-.4-1.9-.2-3 .5-3 .6 0 1.1 1.7 1.1 4 0 3.7.2 4 4 5.1 3.3 1 4 1.7 4 3.8 0 4.2 1.1 4.9 7.5 4.9 3.3-.1 7.4.3 9.1.7 4.5 1 8.8-2.9 10.4-9.5.6-2.7 1.9-5.5 2.7-6.2 1.6-1.3 16.2-29.8 19.4-38 3.1-8 2.2-9.3-13.4-17.6-7.3-3.9-21.4-11.1-31.4-16.1L1062 561l-2.8 6.2zM786.5 566.6c-5.5.7-10.6 1.3-11.3 1.3-2.5.1-.2 1.9 5.3 4.1 5.5 2.2 5.6 2.2 7.1.4.8-1.1 1.7-1.5 2-.9 2.3 5.2 3.5 6.2 12.7 10.4 5.3 2.4 10 4.2 10.3 3.8 1-1-13-20.7-14.6-20.6-.8.1-6 .7-11.5 1.5zM960.5 580.7c-1.1.3-2.6 1.2-3.2 2.1-1.2 1.4-1.3 1.4-1.3-.2 0-1.5-.7-1.7-5.7-1-3.2.3-6 .8-6.2 1-.2.2.8 2.1 2.3 4.1 1.5 2.1 4.3 6.2 6.2 9.1 3.6 5.5 5.4 6 5.4 1.5 0-2.5.1-2.6 2-.8 1 .9 2.6 1.5 3.4 1.2 1.4-.5 1.3-1-.2-3.6-1.6-2.9-1.6-3.1.6-7.6 3.2-6.6 2.9-7.2-3.3-5.8zM917.5 585.6c-4.4.7-8.1 1.3-8.2 1.3-.2.1-.3.8-.3 1.6 0 .9.9 1.5 2.1 1.5 1.8 0 1.9.2.9 1.5-1 1.2-.9 2 .4 4 1 1.5 2.4 2.9 3.2 3.2.7.3 1.1.9.8 1.4-.7 1.1 1.2 3.6 3.6 4.9 1.1.6 2.7.4 4.5-.6 1.7-.9 4-1.2 5.4-.9 3.3.8 15.1-.5 15.1-1.7 0-1.1-4.8-7.8-6.8-9.5-.8-.6-2.1-2.6-3-4.5-1.5-2.9-2.2-3.3-5.7-3.4-2.2-.1-7.6.4-12 1.2zM888 588.7c-.8.3-2.2 1.2-3.1 2-1.4 1.1-1.8 1.1-2.8 0-1-1.3-2.8-1.3-8.8-.1-3.4.7-2.9 2.7 2.7 10.9l5.1 7.5h4.8c4.7 0 21.3-1.9 21.9-2.5.5-.4-8.2-12.9-11.1-16.3-2-2.1-5.4-2.7-8.7-1.5zM844.3 593.4c-5 .6-9.4 1.4-9.8 1.7-.7.7 15.5 8.2 21.6 10 2.4.8 5.3 2.1 6.3 3.1 2.4 2.2 6.6 2.4 6.6.4 0-.8-1.3-2.4-3-3.6-1.6-1.2-3-3-3-4.1 0-3.1-4.9-8.9-7.4-8.8-1.1.1-6.2.7-11.3 1.3zM177.5 611.1c-9.9.4-20.3.7-23.1.8-3.3.1-5.1.5-5.1 1.3 0 .7-.4 2.1-.8 3-.6 1.6.7 1.7 15.7 2 12.4.2 17.1 0 19.7-1.1 2.5-1.1 4-1.2 6.1-.4 2.6 1 3 .8 4.6-2.3 1-1.8 1.6-3.5 1.4-3.6-.3-.2-8.6 0-18.5.3zM106 613.2c-1.1.4-2 1.1-2 1.6 0 1.1 9.7 2.2 18.9 2.2 3.8 0 7.8.6 9.4 1.5 2.7 1.4 2.8 1.3 4.1-1.8.7-1.8 1.1-3.6.8-4.1-.5-.9-28.3-.4-31.2.6zM938 612.7c-1.9.3-4.3 1.2-5.2 2-1.5 1.3-2 1.4-3.3.3-1.1-.9-1.9-1-2.6-.3-.7.7 1 3.8 5.2 9.7 7.4 10.4 9.1 10.8 12.8 3.1 1.3-2.8 3.2-6.7 4.2-8.7 3-5.9 2.6-6.8-2.8-6.6-2.7 0-6.4.3-8.3.5zM252.2 616.1c-3.4 1-5.6 4.6-4.6 7.4.9 2.3 1.8 1.9 6.4-3.1 3.6-3.9 4.4-4.4 5.2-3 1.2 2.2 2.5 2 3.1-.4.4-1.7 0-2-3.1-1.9-2.1 0-5.2.5-7 1zM907 617c0 .5.7 1 1.6 1 .8 0 1.2.4.9 1-.9 1.4-3.5 1.2-6.9-.5-3.1-1.7-4.6-1.2-4.6 1.3-.1 1.6-.2 1.6-1.4-.1-1.6-2-3-2.2-4.4-.4-.9 1-.1 1.8 3.4 3.5 2.4 1.2 5.3 2.2 6.4 2.2 1.1 0 2 .4 2 .8 0 .8 3.1 2.3 13.8 6.8 4.3 1.8 4.9 1.8 5.7-.5.9-2.9-1.4-6.8-5.7-9.6-3.3-2.2-3.7-2.8-2.8-4.5 1-1.9.7-2-3.5-2-2.5 0-4.5.4-4.5 1zM176.5 624c-1.4.6-.4.9 3.8.9 3.2.1 5.7-.3 5.7-.9 0-1.2-6.7-1.2-9.5 0zM119 624.9c-4.1.4-8.4 1.2-9.5 1.8-1.5.9-2.8.8-5.8-.4-2.1-.9-4-1.3-4.3-1-.9.9-11.1 28-14.4 38.2-7.9 24.9-14.2 54.2-17.2 80-1.8 15.9-1.5 53.1.6 68.8 3.4 26.2 9.4 48.9 19.5 73.5 8.8 21.4 23.1 48 34 63.5 2.3 3.2 4.1 6.9 4.1 8.3 0 1.6.8 2.8 2.5 3.6 1.4.6 5.7 5.2 9.7 10.1 17.9 22.4 44.2 46.5 68.7 62.8l13.3 8.9h24.2l24.1-.1-3.5-3c-3-2.6-3.3-3.2-2.2-4.9 1-1.6 1-2-.2-2-3.4 0-37-19.1-47.6-26.9-5.2-4-5.4-4.1-6.5-2.1-1.4 2.6-3.5.8-3.5-2.9 0-1.7-1.8-4-6.2-8-3.4-3.1-9.5-8.6-13.6-12.4-4-3.7-8.1-6.6-8.9-6.5-.9.2-1.9-1-2.7-3.2-.6-1.9-2.1-3.9-3.3-4.5-1.3-.5-2.3-1.4-2.3-2 0-.5-3.7-5.5-8.1-11-4.4-5.5-11.2-14.6-15-20.2-3.8-5.6-7.4-10.5-7.9-10.8-.6-.3-1-1.2-1-1.9 0-.6-2.8-6.2-6.2-12.2-3.5-6-9.6-19.1-13.7-28.9-4.1-9.9-7.8-18.2-8.3-18.3-.4-.2-.8-1.4-.8-2.6 0-1.2-1.3-6.8-2.9-12.4-2.4-8.7-2.6-10.5-1.5-12.1 1.2-1.6 1.1-2.1-.6-3.6-2.6-2.3-3.6-6.6-4.9-19.8-.6-5.9-1.5-11.6-2-12.5-.6-1.1-.6-2.4-.1-3.3.5-.7.9-8.8.9-17.9-.1-9.1.3-20 .8-24.3.6-5.2.6-8-.1-8.7-.8-.8-.7-1.3.2-1.9.7-.4 1.9-4.8 2.7-9.7.8-5 3.3-16.6 5.5-25.8 4.5-19 4.7-20.6 2.3-20.7-1.2-.1-1-.3.6-.8 2-.5 3-2.2 5.3-9.1 3.3-9.9 3.4-10.8 1.1-12.6-1.6-1.2-1.6-1.3.9-1.4 2.2 0 2.9-.7 3.8-3.8.7-2 3.9-9.9 7.1-17.4 3.3-7.6 5.9-14.4 5.9-15.3 0-1.6-.3-1.6-13-.6z"/><path d="M168.5 627.1c-2.4 1.1-4.3 2.7-4.7 4.1-.6 2.3-.6 2.3-1.3.2-.7-2.3-5.8-3.4-15.8-3.4H142l-2.6 5.7c-14.4 32.4-25.4 67.8-30.3 97.9-3.4 20.9-4.4 36.4-3.8 56.8.7 20.6 2.2 33 6.4 49.9l2.6 10.8-2.2 4.6-2.2 4.5 3.5-.4 3.5-.4 5.2 12.8c22 54.9 59.3 101.9 104.9 132.3 34.4 23 80.6 40.5 106.6 40.5 8.4 0 12.6-1.4 16.7-5.6 4.8-4.8 6-8 5.2-14.3-.6-5-1.2-6.1-5.4-10.1-6.3-6.2-9.6-7.6-31.1-13-10.3-2.6-21.9-6.1-25.9-7.8-6.6-2.8-7.5-3-9.5-1.7-1.7 1.2-2.9 1.2-5.9.3-3.4-1-3.8-1.5-3.5-4.2.3-3 .2-3.1-3.3-2.9-3.1.2-3.6-.1-3.2-1.6.4-1.7-3.2-3.9-9.4-5.6-1.3-.4-2.3-1.1-2.3-1.6s-1.8-2.2-4-3.8c-3.8-2.7-3.9-3-1.8-3.3 1.5-.2 2.4-1.1 2.6-2.6.3-1.9-.1-2.2-2.8-2.2-1.7 0-4 .5-5.1 1.1-1.6.8-2.9.3-7.2-2.8-9.1-6.7-22.8-19.8-34.9-33.3-8.8-9.9-22.9-31.3-26.9-40.8-1.7-4.2-3.7-8.1-4.5-8.7-.7-.5-3.2-4.9-5.6-9.7-3.4-6.7-4.1-9.1-3.4-10.7 1.3-3-.7-7.1-3.2-6.5-1.5.5-2.1-.5-3.5-5.8-.8-3.5-2.3-8.2-3.1-10.5-.9-2.4-2.3-8.9-3.2-14.5-.8-5.7-2.1-12.6-2.7-15.3-1.4-5.8-.5-49.2 1.2-58.9.7-4.1.7-6.4 0-7.8-.8-1.5-.7-2.3.4-3.1.7-.7 3.5-10.8 6.2-22.7 2.6-11.8 5.4-22.2 6.2-23.1.7-.8 1.3-2.2 1.3-3 0-.8 4.3-11.5 9.4-23.9 8.9-21.3 9.3-22.5 7.3-22.8-4-.6-4.3-2.2-.4-2.2 2.6 0 3.9-.6 4.7-1.9 1.5-2.9 1.3-3.8-1.2-4.6-2.1-.7-2-.8 1.1-1.4 5.2-.9 5.2-3.1-.1-3.1-2.4 0-5.7-.4-7.3-.8-2.2-.7-4.1-.4-7 .9zM242.1 631.9c-.9.6-1 1.1-.2 1.5 1.3.8 3.1-.1 3.1-1.5 0-1.1-1.1-1.1-2.9 0zM1067.3 683.4c.4 1 .7 2.2.7 2.7s.5.9 1.1.9c1.5 0 .7-4.3-1-4.8-1-.3-1.2 0-.8 1.2zM639.5 711c.3.5 1.5 1 2.6 1 1 0 1.9-.5 1.9-1 0-.6-1.2-1-2.6-1-1.4 0-2.3.4-1.9 1zM1050 711.8c0 1.3.9 2.2 2.6 2.6 3.2.8 4.2.1 2.8-2.2-1.6-2.6-5.4-2.8-5.4-.4zM617 729.7c0 .6-.3 1.8-.6 2.7-.3.9-.1 1.6.5 1.6 1.7 0 2.5-3 1.2-4.3-.8-.8-1.1-.8-1.1 0zM1197 734.7c0 .5.6 1.8 1.4 2.9 1.7 2.2 3.5 1.1 2-1.3-1.2-1.9-3.4-2.9-3.4-1.6zM1154 751.3c-1.4.6-2.7 1.2-2.9 1.4-.9.6 3.1 5.3 4.5 5.3 1.2 0 1.5-.6 1-2.4-.3-1.4-.2-2.8.4-3.1 1.2-.7 1.4-2.5.3-2.4-.5 0-1.9.5-3.3 1.2zM1157.2 763.1c-3.2 1-3.2 1-1.7 3.9 1.5 2.9 1.6 3 4.1 1.4 4.1-2.7 5.3-6.6 2-6.3-.6 0-2.6.5-4.4 1zM1161 780.5c-.6 1.6-1.3 3.6-1.5 4.2-.6 1.8.9 1.6 3.4-.5 1.8-1.5 1.9-1.9.6-4.2l-1.3-2.5-1.2 3zM784.2 786.7c-.6.2-1 .9-.6 1.4.9 1.4 4.1 1 4.8-.6.5-1.5-1.5-1.9-4.2-.8zM794.5 795.1c-1 1.4-.1 2.1 1.9 1.3.9-.3 1.3-1 1-1.5-.7-1.2-2.1-1.1-2.9.2zM814.5 798c-.4.6-.2 1.7.4 2.3 1.5 1.5 2.5.2 1.3-1.9-.7-1.2-1.1-1.3-1.7-.4zM826.6 809.9c-1.4.5-1.6 1-.7 1.5 1.5.9 4.1.1 4.1-1.4 0-1.1-.7-1.2-3.4-.1zM840.6 810.9c-1.1 1.6 2.7 2.2 4.3.6 1.4-1.3 1.3-1.5-1.1-1.5-1.5 0-2.9.4-3.2.9zM479.2 821.2c.5 1.5 2.8 1.8 2.9.3 0-.6-.7-1.2-1.7-1.3-1-.3-1.5.1-1.2 1zM1228.3 873c-1.6.7-2.3 1.8-2.3 3.7-.1 7.3-7.5 28.7-15.5 44.3-13.5 26.6-37.7 49.4-68.6 64.7-19.9 9.8-53.5 19.5-67.4 19.5-3.3 0-6.9.5-8 1.1-1.1.5-9.8 1.2-19.7 1.3-26.6.5-34.8 2.4-35.6 8.3-.2 1.5-.9 2.1-1.8 1.7-1.9-.7-4.4 4.3-4.4 8.8 0 1.9-.5 5.7-1.2 8.5-1.4 6.1-.2 8.5 3.2 6.3 1.8-1.1 2.5-.8 5.7 2.3 2 1.9 5.2 3.9 7.2 4.4 2 .5 10.9.9 19.9.9 14.2 0 16.2-.2 16.2-1.6 0-1.2.3-1.3 1.2-.4 1.7 1.7 9.3 1.5 24.5-.7 16-2.4 29.9-5.6 33.1-7.7 1.3-.9 3.3-1.4 4.3-1.1 1 .3 2.2.1 2.5-.4.3-.5 1.4-.9 2.4-.9s2.1-.8 2.3-1.8c.4-1.6.5-1.6.6.1.1 1.5.4 1.6 2.2.7 1.1-.7 4.3-1.8 7-2.6 2.8-.8 5.2-2.1 5.5-2.9.3-.8 1.2-1.1 2-.8.8.3 2.8 0 4.4-.7 2.5-1 2.8-1.5 1.9-3.1-1.2-2.3-2.9-2.5-2.9-.4 0 2-1.6 1.9-2.4-.1-.5-1.3-1.5-1.5-4.4-1-3.7.5-4 .4-6.1-3.4-1.2-2.1-3.8-5.2-5.7-6.8-4-3.4-3.3-4.6 2.1-3.6 2.7.5 3.5 1.1 3.5 2.8 0 1.2.7 3.1 1.5 4.2.8 1 1.5 2.9 1.5 4 0 1.7.5 2 2.5 1.6 1.6-.3 2.5-1.1 2.5-2.4 0-1.6.3-1.7 2.1-.7 1.4.7 2.4.8 3.1.1 1.5-1.5 3.8-.3 3.8 1.8 0 1 .7 2.3 1.5 3 1.1.9 2.6.5 7.4-2.1 5.4-3 5.9-3.5 4.6-4.9-2.4-2.7-1.7-3.1 2-1.3l3.4 1.6 12.6-8.3c6.9-4.6 13.6-9.2 14.9-10.4 1.4-1.2 5.9-5 10.1-8.6 4.2-3.6 10.7-10.1 14.4-14.5 10.3-12.4 9.8-11.5 7.7-13.1-1.6-1.1-1.7-1.6-.6-2.9.7-.8 2.1-1.5 3.1-1.5 1.1 0 1.9-.3 1.9-.8 0-.4 1-1.2 2.2-1.7 2.7-1.2 10.3-15.3 18.4-34.2 4.7-11 5.6-13.9 5.1-17.2-.4-3.2-.1-4.2 1.5-5.3 1.4-1 2.6-4.2 4.3-12.3 2.9-13 3-14.5 1-14.5-.9 0-1.5.9-1.6 2.2v2.3l-.9-2.3c-.9-2.2-1.2-2.2-17.2-2.1-9 0-17.3.4-18.5.9zM331 878.7c-4 .7-4.6 2.1-1.5 3.5 2.4 1.1 2.9 1 4.1-.7 1.5-2.1 1.8-3.6.7-3.4-.5.1-1.9.4-3.3.6zM343 892.5c0 2 .5 2.5 2.3 2.5 3.3 0 4-1 2-3.2-2.3-2.6-4.3-2.3-4.3.7z"/><path d="M307.6 921.3c-1.4 1-1.6 1.6-.7 2.2 1.5.9 3.5-.8 3-2.4-.3-.8-1-.7-2.3.2zM1083.5 945c.3.5 1 1 1.6 1 .5 0 .9-.5.9-1 0-.6-.7-1-1.6-1-.8 0-1.2.4-.9 1zM1068 949.5c0 1.5.6 2.5 1.4 2.5 2.2 0 3-1.9 1.6-3.5-1.8-2.2-3-1.8-3 1zM1289.9 960.9c-1.9 1.6-2 2-.8 2.1 1.7 0 4.5-2.7 3.7-3.5-.3-.3-1.6.3-2.9 1.4zM271 1040.1c0 2.9 0 2.9 6 2.9 3.3 0 6-.4 6-.9s-2.7-1.8-6-2.9l-6-2.1v3zM328.8 1074.7c1.2.2 3.2.2 4.5 0 1.2-.2.2-.4-2.3-.4s-3.5.2-2.2.4zM375.8 1094.6c-.5.4-.8 1.9-.8 3.3 0 1.8.3 2.2 1.1 1.4.6-.6.9-2.1.7-3.3-.1-1.2-.6-1.8-1-1.4zM626.1 1099.3c-.6.8-.8 1.7-.4 2 .7.8 3.3-1.1 3.3-2.4 0-1.3-1.6-1.1-2.9.4zM443.3 1100.7c-1.8.7-1.6 2 .4 2.7 1.5.6 3.2-.8 3.3-2.7 0-.8-1.8-.8-3.7 0z"/></svg>